<?xml version="1.0" encoding="UTF-8" standalone="no"?>
<svg width="159px" height="33px" viewBox="0 0 159 33" version="1.1" xmlns="http://www.w3.org/2000/svg" xmlns:xlink="http://www.w3.org/1999/xlink">
    <!-- Generator: Sketch 42 (36781) - http://www.bohemiancoding.com/sketch -->
    <title>garage_logo_black copy 3</title>
    <desc>Created with Sketch.</desc>
    <defs>
        <polygon id="path-1" points="21.8809207 0.182679189 21.8809207 31.0730169 0.272987923 31.0730169 0.272987923 0.182679189 21.8809207 0.182679189"></polygon>
    </defs>
    <g id="Page-1" stroke="none" stroke-width="1" fill="none" fill-rule="evenodd">
        <g id="Desktop" transform="translate(-91.000000, -1984.000000)">
            <g id="garage_logo_black" transform="translate(91.000000, 1983.025641)">
                <g id="Page-1">
                    <path d="M0,16.4571 C0.0921036585,15.7921 0.166756098,15.1231 0.279219512,14.4621 C0.802756098,11.3891 2.0989939,8.6971 4.12139634,6.3901 C4.83883537,5.5711 5.58439024,4.7361 6.45404268,4.1091 C7.66205488,3.2371 8.97283537,2.5111 10.370872,1.9651 C12.3234695,1.2031 14.3274512,0.8321 16.4080244,0.9691 C20.1794268,1.2191 23.5853232,2.4471 26.4405366,5.0761 C26.9621341,5.5571 27.4284695,6.1031 27.9122561,6.6271 C28.0479878,6.7741 28.1556037,6.9491 28.3175122,7.1661 C26.6198963,8.5631 24.9377927,9.9471 23.257628,11.3301 C19.123628,6.6431 13.791311,7.3411 10.654939,9.5951 C7.27521951,12.0241 5.91014634,16.6471 7.37701829,20.7351 C8.75081707,24.5671 12.4892561,27.0971 16.7890427,26.7331 C21.0665305,26.3721 23.7094207,23.2271 24.1544268,21.2391 L20.5478415,21.2391 L16.9780976,21.2391 L16.9780976,15.2491 C18.6340244,15.2491 20.2395366,15.2501 21.8450488,15.2491 C23.214,15.2471 24.5829512,15.2391 25.9519024,15.2401 C27.423622,15.2411 28.896311,15.2601 30.3680305,15.2491 C30.6763354,15.2461 30.611378,15.4391 30.6123476,15.6031 C30.6201037,17.1371 30.6259207,18.6701 30.6239817,20.2031 C30.6220427,22.6521 30.6123476,25.1001 30.6123476,27.5491 C30.6123476,27.7211 30.6627622,27.8941 30.6928171,28.0841 C30.6724573,28.1681 30.6142866,28.2941 30.6133171,28.4201 C30.6016829,29.7841 30.5997439,31.1481 30.5939268,32.5121 L30.5939268,32.8301 C30.1411646,32.8301 29.7136098,32.8271 29.2860549,32.8301 C28.0101768,32.8421 26.7352683,32.8511 25.4613293,32.8771 C25.2189512,32.8821 25.159811,32.7941 25.163689,32.5661 C25.1733841,31.9281 25.1665976,31.2901 25.1665976,30.5651 C24.9116159,30.7551 24.7235305,30.9021 24.529628,31.0391 C22.6245366,32.3891 20.5391159,33.2831 18.2539756,33.6671 C15.896122,34.0631 13.5712317,33.9071 11.2831829,33.1971 C8.0934878,32.2051 5.47871341,30.3421 3.41946951,27.6491 C1.76645122,25.4871 0.728103659,23.0331 0.2385,20.3331 C0.12797561,19.7231 0.0775609756,19.1011 0,18.4861 L0,16.4571 Z" id="Fill-1" fill="#1D1C1B"></path>
                    <path d="M91.2312915,21.6924 L97.4158098,21.6924 C96.3939439,18.6194 95.3875902,15.5914 94.3502122,12.4734 C93.2963524,15.5894 92.271578,18.6184 91.2312915,21.6924 M65.5624866,16.0324 C65.7719012,16.0324 65.957078,16.0344 66.1412854,16.0324 C67.9184012,16.0184 69.6955171,16.0104 71.4726329,15.9824 C71.760578,15.9784 72.0562793,15.9244 72.3306512,15.8344 C73.9022305,15.3184 74.9696634,13.9254 74.8872549,11.9794 C74.7999988,9.9074 73.1847915,8.5044 71.5075354,8.4294 C69.6150476,8.3444 67.7157732,8.4124 65.8194073,8.4034 C65.5799378,8.4024 65.5130415,8.4974 65.5246756,8.7214 C65.5450354,9.1194 65.5653951,9.5174 65.5673341,9.9154 C65.5712122,10.9094 65.5644256,11.9034 65.5634561,12.8974 C65.5624866,13.9204 65.5624866,14.9424 65.5624866,16.0324 M75.1053951,21.4564 C76.9387427,24.8104 78.7633646,28.1514 80.6354927,31.5774 C80.8681756,30.9554 81.0669256,30.4234 81.2656756,29.8904 C81.5943402,29.0064 81.9239744,28.1224 82.2516695,27.2364 C82.5619134,26.3944 82.8663402,25.5504 83.1785232,24.7094 C83.5120354,23.8124 83.8591207,22.9194 84.1877854,22.0204 C84.9750293,19.8704 85.7583951,17.7194 86.5359439,15.5664 C87.0808098,14.0564 87.6004683,12.5364 88.1540598,11.0304 C88.9403341,8.8924 89.7440598,6.7624 90.5468159,4.6324 C90.8425171,3.8464 91.1624561,3.0704 91.4591268,2.2844 C91.5328098,2.0884 91.6588463,2.0044 91.8430537,2.0034 C93.4495354,1.9934 95.0569866,1.9904 96.6634683,1.9794 C97.1967,1.9754 97.1511329,1.9814 97.3023768,2.5084 C97.4739805,3.1064 97.7415659,3.6744 97.9587366,4.2594 C98.5288098,5.7984 99.0901573,7.3414 99.6612,8.8804 C100.161468,10.2284 100.672401,11.5714 101.174609,12.9184 C102.076255,15.3334 102.986627,17.7454 103.869852,20.1684 C104.299346,21.3494 104.652249,22.5584 105.081743,23.7384 C105.738102,25.5364 106.436151,27.3164 107.104145,29.1094 C107.534609,30.2624 107.942773,31.4254 108.362572,32.5824 C108.398444,32.6814 108.447889,32.7754 108.513816,32.9204 C108.358694,32.9364 108.22781,32.9624 108.095956,32.9624 C106.00084,32.9664 103.905724,32.9624 101.809639,32.9724 C101.567261,32.9734 101.445102,32.9064 101.347182,32.6604 C100.702456,31.0494 100.031554,29.4494 99.3858585,27.8384 C99.2879378,27.5954 99.1667488,27.5234 98.9204927,27.5244 C96.604328,27.5354 94.2881634,27.5384 91.9710293,27.5324 C91.2235354,27.5304 90.4760415,27.5044 89.7295171,27.4684 C89.4910171,27.4574 89.3834012,27.5344 89.2971146,27.7674 C88.6911695,29.4104 88.0658341,31.0444 87.456011,32.6844 C87.3862061,32.8724 87.3212488,32.9744 87.0943829,32.9734 C83.208578,32.9554 79.3227732,32.9474 75.4359988,32.9394 C74.898889,32.9384 74.3608098,32.9574 73.8237,32.9454 C73.7286878,32.9424 73.5939256,32.8524 73.549328,32.7634 C72.4499012,30.5834 71.361139,28.3984 70.2684988,26.2154 C69.653828,24.9854 69.0391573,23.7554 68.4128524,22.5324 C68.3595293,22.4264 68.2237976,22.2994 68.1239378,22.2964 C67.2727061,22.2784 66.4195354,22.2864 65.4829866,22.2864 L65.4829866,32.9964 C63.8183341,32.9524 62.2399683,32.9074 60.6616024,32.8724 C60.2534378,32.8624 59.8443037,32.8754 59.4371085,32.8914 C59.1898829,32.9014 59.0716024,32.8164 59.0735415,32.5424 C59.0832366,30.6944 59.080328,28.8474 59.0909927,27.0004 C59.1016573,25.1594 59.1307427,23.3194 59.1394683,21.4784 C59.1472244,19.8884 59.1317122,18.2984 59.1423768,16.7074 C59.1443159,16.4324 59.0900232,16.2414 58.7914134,16.1314 C59.1035963,16.1374 59.1404378,15.9714 59.1355902,15.7134 C59.1045659,14.2424 59.0706329,12.7714 59.0812976,11.3004 C59.0939012,9.6614 59.1656451,8.0234 59.1879439,6.3844 C59.2073341,5.0104 59.191822,3.6364 59.191822,2.2104 C59.5447244,2.2104 59.8588463,2.2104 60.1729683,2.2094 C61.0290476,2.2074 61.8860963,2.1964 62.7431451,2.2014 C63.9792732,2.2074 65.2144317,2.2334 66.4505598,2.2354 C67.4898768,2.2384 68.5291939,2.2154 69.5675415,2.2094 C70.5496573,2.2034 71.5346817,2.1444 72.51195,2.2124 C76.0623037,2.4554 78.7808159,4.1384 80.5220598,7.3654 C81.9569378,10.0224 82.095578,12.8214 81.0300841,15.6324 C79.9946451,18.3644 78.0885841,20.2554 75.4214561,21.3104 C75.3671634,21.3314 75.3119012,21.3504 75.2576085,21.3724 C75.2362793,21.3804 75.216889,21.3944 75.1053951,21.4564" id="Fill-3" fill="#1D1C1B"></path>
                    <path d="M133.42582,7.1422 C131.7156,8.5622 130.044161,9.9492 128.362057,11.3462 C126.514167,9.3232 124.373484,7.9712 121.65982,7.8582 C119.430911,7.7642 117.380393,8.3732 115.568374,9.7392 C112.084917,12.3632 111.083411,17.1702 112.584216,20.9872 C114.18682,25.0602 118.301429,27.2972 122.543045,26.6562 C126.432728,26.0692 128.984484,22.9602 129.237527,21.2542 L122.123246,21.2542 L122.123246,15.2462 C125.862655,15.2462 129.540984,15.2452 133.219313,15.2462 C133.931905,15.2462 134.643527,15.2702 135.354179,15.2462 C135.675088,15.2352 135.766222,15.3262 135.763313,15.6602 C135.747801,17.7602 135.756527,19.8612 135.751679,21.9612 C135.745862,24.4472 135.734228,26.9332 135.725502,29.4192 C135.722594,30.4802 135.722594,31.5412 135.719685,32.6022 C135.719685,32.6592 135.707082,32.7172 135.696417,32.8232 L130.273935,32.8232 L130.273935,30.4942 C129.297637,31.4182 128.206935,31.9902 127.094905,32.5132 C125.109344,33.4472 123.003563,33.9052 120.831856,33.8772 C116.71046,33.8252 113.11357,32.3582 110.100326,29.4262 C108.379441,27.7522 107.139435,25.7532 106.248454,23.4972 C105.325478,21.1602 104.988088,18.7322 105.178112,16.2432 C105.42146,13.0552 106.399698,10.1182 108.333874,7.5732 C108.902978,6.8252 109.461417,6.0512 110.127472,5.4002 C111.596283,3.9652 113.307472,2.9082 115.185417,2.1092 C117.979551,0.9202 120.838643,0.7622 123.78499,1.2812 C127.219972,1.8862 130.135295,3.4692 132.535807,6.0662 C132.833448,6.3882 133.097155,6.7432 133.42582,7.1422" id="Fill-5" fill="#1D1C1B"></path>
                    <g id="Group-9" transform="translate(136.701220, 1.878600)">
                        <mask id="mask-2" fill="white">
                            <use xlink:href="#path-1"></use>
                        </mask>
                        <g id="Clip-8"></g>
                        <path d="M21.0483037,12.5468 C21.0483037,13.4048 21.0579988,14.2798 21.0453951,15.1558 C21.033761,16.0318 20.999828,16.9078 20.9765598,17.7838 C20.9736512,17.8918 20.9717122,18.0008 20.9755902,18.1098 C20.9949805,18.6928 20.99595,18.6948 20.4346024,18.6978 C19.9895963,18.6998 19.5455598,18.6918 19.1005537,18.6998 C18.3559683,18.7118 17.6123524,18.7458 16.8677671,18.7448 C15.6306695,18.7428 14.393572,18.6968 13.1564744,18.7108 C11.418139,18.7308 9.67980366,18.7898 7.94146829,18.8298 C7.62831585,18.8368 7.31516341,18.8308 6.95450488,18.8308 L6.95450488,24.7278 L21.8481512,24.7278 C21.8481512,25.2088 21.8452427,25.7328 21.8491207,26.2578 C21.8559073,27.1478 21.8694805,28.0378 21.8762671,28.9278 C21.8811146,29.4998 21.8801451,30.0728 21.8811146,30.6448 C21.8820841,30.9988 21.6367976,30.9908 21.3982976,30.9898 C20.1243585,30.9858 18.84945,30.9698 17.575511,30.9838 C16.7834195,30.9918 15.991328,31.0608 15.1992366,31.0728 C14.8279134,31.0778 14.4565902,30.9948 14.083328,30.9828 C13.5714256,30.9648 13.0585537,30.9788 12.5456817,30.9748 C12.2790659,30.9718 12.0114805,30.9528 11.7438951,30.9508 C10.0123463,30.9438 8.27982805,30.9358 6.54827927,30.9328 C4.51133415,30.9308 2.47438902,30.9328 0.40545,30.9328 C0.391876829,30.7298 0.372486585,30.5658 0.370547561,30.4008 C0.357943902,28.0848 0.34824878,25.7698 0.336614634,23.4538 C0.318193902,19.8468 0.29492561,16.2408 0.284260976,12.6338 C0.279413415,11.0428 0.306559756,9.4518 0.305590244,7.8598 C0.305590244,6.7508 0.267779268,5.6408 0.273596341,4.5308 C0.282321951,3.1928 0.322071951,1.8548 0.342431707,0.5168 C0.346309756,0.2738 0.432596341,0.1788 0.679821951,0.1828 C1.97605976,0.2058 3.27326707,0.2158 4.56950488,0.2268 C5.82987073,0.2378 7.09023659,0.2438 8.35060244,0.2508 C10.0074988,0.2598 11.6643951,0.2708 13.3212915,0.2758 C13.683889,0.2768 14.0455171,0.2368 14.4081146,0.2408 C15.9127976,0.2598 17.4174805,0.2928 18.9221634,0.3098 C19.8877976,0.3208 20.8544012,0.3118 21.8529988,0.3118 L21.8529988,6.5048 C16.9017,6.5438 11.93295,6.2488 6.92541951,6.5508 C6.92541951,7.5038 6.92541951,8.4478 6.92638902,9.3918 C6.92638902,10.2498 6.92929756,11.1068 6.92832805,11.9638 C6.92832805,12.1588 6.9322061,12.3198 7.19688293,12.3188 C8.36514512,12.3148 9.53340732,12.3218 10.702639,12.3268 C12.771578,12.3348 14.8405171,12.3498 16.9104256,12.3478 C17.4649866,12.3468 18.018578,12.2708 18.573139,12.2698 C19.0472305,12.2688 19.521322,12.3268 19.9954134,12.3578 C20.0758829,12.3628 20.1708951,12.3968 20.2329439,12.3638 C20.5276756,12.2088 20.7710232,12.3028 21.0483037,12.5468" id="Fill-7" fill="#1D1C1B" mask="url(#mask-2)"></path>
                    </g>
                    <path d="M47.871022,21.7004 C46.8472171,18.6194 45.845711,15.6024 44.8442049,12.5864 C44.816089,12.5904 44.7879732,12.5954 44.7598573,12.5994 C43.7399305,15.6194 42.7190341,18.6404 41.6845646,21.7004 L47.871022,21.7004 Z M58.9661195,32.9434 C58.7945159,32.9524 58.6801134,32.9624 58.5666805,32.9634 C56.458961,32.9654 54.352211,32.9624 52.245461,32.9744 C52.012778,32.9754 51.9003146,32.9074 51.808211,32.6794 C51.1537902,31.0574 50.4761012,29.4464 49.8236195,27.8244 C49.7324854,27.5964 49.6316561,27.5244 49.3970341,27.5264 C47.0682659,27.5374 44.7404671,27.5394 42.4126683,27.5344 C41.6535402,27.5324 40.8944122,27.5094 40.1362537,27.4754 C39.9132659,27.4654 39.8337659,27.5624 39.762022,27.7544 C39.1531683,29.3964 38.53365,31.0344 37.9228573,32.6754 C37.8549915,32.8574 37.7910037,32.9764 37.5602598,32.9744 C35.3245646,32.9634 33.0888695,32.9654 30.8531744,32.9634 C30.8076073,32.9634 30.7319854,32.9624 30.6146744,32.9474 C30.8289366,32.3144 31.0499854,31.6884 31.2739427,31.0844 C31.9118817,29.3674 32.5779366,27.6624 33.2042415,25.9414 C33.8247293,24.2324 34.3986805,22.5054 35.0152902,20.7954 C35.3817659,19.7814 35.8073817,18.7904 36.1767659,17.7774 C37.0037598,15.5124 37.8016683,13.2364 38.6325402,10.9724 C39.2598146,9.2624 39.9219915,7.5654 40.5657476,5.8614 C41.0107537,4.6844 41.4499427,3.5044 41.8939793,2.3274 C41.993839,2.0614 42.1576866,2.0004 42.4562963,2.0224 C43.1989427,2.0764 43.9474061,2.0604 44.692961,2.0494 C45.5112293,2.0364 46.328528,1.9964 47.1467963,1.9724 C47.2980402,1.9684 47.4551012,1.9664 47.5995585,2.0044 C47.680028,2.0254 47.8070341,2.1454 47.797339,2.1984 C47.6984488,2.7284 47.9893024,3.1514 48.1521805,3.6014 C48.6049427,4.8534 49.0848512,6.0954 49.5521561,7.3424 C50.2376012,9.1714 50.9211073,11.0024 51.6065524,12.8314 C52.5663695,15.3924 53.5407293,17.9464 54.4782476,20.5154 C54.9213146,21.7304 55.2654915,22.9844 55.70565,24.2014 C56.3183817,25.8964 56.9854061,27.5714 57.615589,29.2604 C58.0286012,30.3664 58.4183451,31.4824 58.8187537,32.5934 C58.8546256,32.6914 58.8992232,32.7854 58.9661195,32.9434 L58.9661195,32.9434 Z" id="Fill-10" fill="#1D1C1B"></path>
                </g>
            </g>
        </g>
    </g>
</svg>