<?xml version="1.0" encoding="UTF-8" standalone="no"?>
<svg width="355px" height="73px" viewBox="0 0 355 73" version="1.1" xmlns="http://www.w3.org/2000/svg" xmlns:xlink="http://www.w3.org/1999/xlink">
    <!-- Generator: Sketch 44.1 (41455) - http://www.bohemiancoding.com/sketch -->
    <title>garage_logo_white</title>
    <desc>Created with Sketch.</desc>
    <defs></defs>
    <g id="Page-1" stroke="none" stroke-width="1" fill="none" fill-rule="evenodd">
        <g id="Desktop" transform="translate(-335.000000, -236.000000)" fill="#FEFEFE">
            <g id="garage_logo_white" transform="translate(335.000000, 236.000000)">
                <g id="GARAGE">
                    <g>
                        <path d="M0,34.5126 C0.206,33.0706 0.374,31.6216 0.625,30.1876 C1.794,23.5246 4.695,17.6876 9.216,12.6866 C10.822,10.9106 12.489,9.0996 14.433,7.7416 C17.136,5.8506 20.065,4.2766 23.191,3.0926 C27.558,1.4396 32.04,0.6346 36.694,0.9336 C45.127,1.4746 52.742,4.1376 59.128,9.8366 C60.296,10.8796 61.337,12.0646 62.419,13.1996 C62.723,13.5186 62.964,13.8976 63.325,14.3686 C59.529,17.3966 55.768,20.3976 52.011,23.3956 C42.765,13.2346 30.841,14.7476 23.828,19.6346 C16.27,24.9006 13.218,34.9246 16.497,43.7876 C19.57,52.0966 27.929,57.5806 37.546,56.7926 C47.112,56.0086 53.022,49.1896 54.016,44.8796 L45.95,44.8796 L37.967,44.8796 L37.967,31.8936 C41.67,31.8936 45.26,31.8966 48.851,31.8926 C51.912,31.8896 54.974,31.8706 58.035,31.8736 C61.327,31.8766 64.62,31.9166 67.912,31.8926 C68.601,31.8876 68.456,32.3066 68.457,32.6616 C68.474,35.9866 68.487,39.3106 68.485,42.6346 C68.48,47.9436 68.458,53.2526 68.457,58.5616 C68.457,58.9356 68.571,59.3086 68.638,59.7206 C68.592,59.9036 68.463,60.1766 68.461,60.4506 C68.435,63.4076 68.429,66.3646 68.417,69.3216 C68.416,69.4996 68.417,69.6786 68.417,70.0106 C67.405,70.0106 66.448,70.0036 65.491,70.0116 C62.639,70.0376 59.788,70.0556 56.938,70.1126 C56.397,70.1236 56.265,69.9326 56.272,69.4396 C56.294,68.0556 56.28,66.6726 56.28,65.1006 C55.709,65.5126 55.289,65.8296 54.856,66.1276 C50.595,69.0546 45.931,70.9936 40.82,71.8256 C35.547,72.6836 30.348,72.3466 25.231,70.8056 C18.098,68.6566 12.252,64.6166 7.647,58.7776 C3.95,54.0896 1.627,48.7706 0.533,42.9156 C0.286,41.5936 0.174,40.2456 0,38.9106 L0,34.5126 Z" id="Fill-1"></path>
                        <path d="M204.0183,45.8632 L217.8483,45.8632 C215.5633,39.2002 213.3123,32.6362 210.9933,25.8762 C208.6363,32.6312 206.3443,39.1992 204.0183,45.8632 M146.6163,33.5922 C147.0833,33.5922 147.4973,33.5952 147.9103,33.5922 C151.8853,33.5612 155.8593,33.5432 159.8333,33.4842 C160.4753,33.4742 161.1383,33.3582 161.7513,33.1632 C165.2663,32.0442 167.6523,29.0232 167.4693,24.8052 C167.2723,20.3122 163.6613,17.2702 159.9103,17.1072 C155.6783,16.9242 151.4313,17.0712 147.1913,17.0512 C146.6543,17.0482 146.5043,17.2562 146.5303,17.7412 C146.5773,18.6032 146.6223,19.4662 146.6263,20.3292 C146.6353,22.4842 146.6193,24.6402 146.6173,26.7952 C146.6153,29.0122 146.6163,31.2292 146.6163,33.5922 M167.9563,45.3512 C172.0553,52.6232 176.1373,59.8672 180.3233,67.2942 C180.8423,65.9462 181.2883,64.7922 181.7313,63.6372 C182.4673,61.7192 183.2053,59.8032 183.9363,57.8832 C184.6313,56.0582 185.3113,54.2272 186.0103,52.4042 C186.7563,50.4582 187.5313,48.5242 188.2673,46.5742 C190.0273,41.9142 191.7793,37.2502 193.5183,32.5822 C194.7373,29.3082 195.8993,26.0132 197.1373,22.7472 C198.8953,18.1122 200.6923,13.4942 202.4873,8.8742 C203.1493,7.1712 203.8643,5.4882 204.5273,3.7852 C204.6923,3.3602 204.9743,3.1782 205.3863,3.1752 C208.9793,3.1542 212.5723,3.1472 216.1663,3.1222 C217.3593,3.1142 217.2573,3.1272 217.5953,4.2712 C217.9783,5.5682 218.5773,6.7982 219.0623,8.0662 C220.3373,11.4042 221.5923,14.7492 222.8693,18.0852 C223.9883,21.0072 225.1303,23.9202 226.2543,26.8392 C228.2703,32.0772 230.3063,37.3072 232.2803,42.5602 C233.2423,45.1182 234.0313,47.7412 234.9923,50.2992 C236.4593,54.1962 238.0213,58.0572 239.5153,61.9432 C240.4773,64.4442 241.3903,66.9642 242.3293,69.4742 C242.4093,69.6892 242.5203,69.8922 242.6663,70.2072 C242.3213,70.2422 242.0273,70.2972 241.7333,70.2972 C237.0473,70.3052 232.3613,70.2982 227.6753,70.3202 C227.1323,70.3222 226.8603,70.1762 226.6403,69.6422 C225.1993,66.1492 223.6983,62.6812 222.2543,59.1892 C222.0363,58.6622 221.7633,58.5052 221.2143,58.5072 C216.0333,58.5322 210.8533,58.5382 205.6723,58.5252 C204.0023,58.5212 202.3293,58.4632 200.6593,58.3872 C200.1273,58.3622 199.8853,58.5282 199.6923,59.0352 C198.3383,62.5952 196.9403,66.1392 195.5753,69.6952 C195.4193,70.1032 195.2733,70.3242 194.7683,70.3222 C186.0773,70.2822 177.3863,70.2652 168.6963,70.2482 C167.4943,70.2462 166.2913,70.2872 165.0913,70.2602 C164.8783,70.2552 164.5753,70.0582 164.4753,69.8672 C162.0173,65.1412 159.5823,60.4032 157.1403,55.6692 C155.7643,53.0032 154.3903,50.3372 152.9903,47.6832 C152.8703,47.4552 152.5673,47.1782 152.3433,47.1732 C150.4393,47.1322 148.5333,47.1502 146.4383,47.1502 L146.4383,70.3712 C142.7153,70.2762 139.1853,70.1792 135.6563,70.1022 C134.7433,70.0812 133.8293,70.1102 132.9173,70.1442 C132.3653,70.1652 132.1003,69.9822 132.1043,69.3862 C132.1273,65.3812 132.1203,61.3762 132.1443,57.3712 C132.1683,53.3812 132.2323,49.3902 132.2523,45.4002 C132.2693,41.9522 132.2343,38.5042 132.2593,35.0562 C132.2633,34.4592 132.1413,34.0442 131.4743,33.8072 C132.1713,33.8192 132.2543,33.4592 132.2433,32.9012 C132.1743,29.7122 132.0973,26.5222 132.1223,23.3332 C132.1503,19.7792 132.3113,16.2272 132.3613,12.6732 C132.4033,9.6952 132.3693,6.7172 132.3693,3.6232 C133.1583,3.6232 133.8603,3.6252 134.5623,3.6232 C136.4783,3.6172 138.3953,3.5942 140.3113,3.6042 C143.0753,3.6182 145.8383,3.6742 148.6013,3.6792 C150.9253,3.6842 153.2493,3.6362 155.5733,3.6222 C157.7683,3.6092 159.9713,3.4822 162.1563,3.6272 C170.0973,4.1562 176.1763,7.8042 180.0703,14.8012 C183.2773,20.5622 183.5893,26.6302 181.2063,32.7242 C178.8903,38.6482 174.6263,42.7472 168.6633,45.0342 C168.5413,45.0812 168.4173,45.1212 168.2953,45.1692 C168.2483,45.1872 168.2053,45.2162 167.9563,45.3512" id="Fill-3"></path>
                        <path d="M298.377,14.3169 C294.553,17.3949 290.814,20.4039 287.052,23.4329 C282.921,19.0459 278.134,16.1149 272.064,15.8679 C267.081,15.6669 262.495,16.9869 258.442,19.9469 C250.653,25.6369 248.414,36.0599 251.77,44.3339 C255.353,53.1649 264.554,58.0149 274.04,56.6259 C282.738,55.3519 288.445,48.6129 289.011,44.9139 L273.102,44.9139 L273.102,31.8869 C281.464,31.8869 289.69,31.8849 297.916,31.8869 C299.508,31.8879 301.1,31.9389 302.69,31.8869 C303.408,31.8629 303.611,32.0609 303.605,32.7849 C303.57,37.3379 303.59,41.8919 303.579,46.4459 C303.566,51.8359 303.539,57.2259 303.521,62.6149 C303.513,64.9159 303.513,67.2159 303.506,69.5169 C303.506,69.6409 303.48,69.7649 303.454,69.9959 L291.328,69.9959 L291.328,64.9459 C289.146,66.9499 286.707,68.1889 284.22,69.3239 C279.778,71.3499 275.071,72.3409 270.214,72.2819 C260.998,72.1689 252.953,68.9869 246.215,62.6319 C242.366,59.0009 239.594,54.6659 237.601,49.7749 C235.537,44.7099 234.783,39.4459 235.208,34.0489 C235.751,27.1359 237.939,20.7699 242.264,15.2519 C243.536,13.6289 244.786,11.9519 246.275,10.5409 C249.56,7.4289 253.387,5.1379 257.586,3.4049 C263.834,0.8279 270.229,0.4839 276.818,1.6089 C284.499,2.9209 291.02,6.3529 296.388,11.9849 C297.052,12.6819 297.642,13.4509 298.377,14.3169" id="Fill-5"></path>
                        <path d="M352.7715,30.1077 C352.7715,31.9677 352.7925,33.8657 352.7655,35.7637 C352.7385,37.6627 352.6635,39.5617 352.6115,41.4617 C352.6055,41.6967 352.6015,41.9327 352.6095,42.1677 C352.6535,43.4327 352.6545,43.4367 351.3985,43.4437 C350.4045,43.4487 349.4105,43.4317 348.4155,43.4477 C346.7515,43.4727 345.0875,43.5487 343.4235,43.5457 C340.6565,43.5417 337.8895,43.4417 335.1235,43.4727 C331.2355,43.5157 327.3475,43.6437 323.4595,43.7287 C322.7605,43.7447 322.0605,43.7317 321.2535,43.7317 L321.2535,56.5167 L354.5605,56.5167 C354.5605,57.5597 354.5525,58.6967 354.5615,59.8337 C354.5775,61.7637 354.6065,63.6937 354.6235,65.6237 C354.6335,66.8637 354.6325,68.1057 354.6335,69.3457 C354.6355,70.1147 354.0885,70.0957 353.5555,70.0947 C350.7045,70.0867 347.8545,70.0507 345.0045,70.0797 C343.2335,70.0977 341.4635,70.2477 339.6925,70.2737 C338.8615,70.2857 338.0305,70.1057 337.1965,70.0787 C336.0515,70.0407 334.9045,70.0707 333.7585,70.0607 C333.1605,70.0557 332.5625,70.0127 331.9645,70.0097 C328.0915,69.9927 324.2185,69.9767 320.3465,69.9717 C315.7905,69.9647 311.2365,69.9697 306.6085,69.9697 C306.5775,69.5307 306.5335,69.1737 306.5315,68.8177 C306.5025,63.7967 306.4805,58.7757 306.4545,53.7547 C306.4145,45.9357 306.3625,38.1167 306.3375,30.2967 C306.3275,26.8477 306.3865,23.3967 306.3855,19.9467 C306.3845,17.5407 306.2995,15.1337 306.3145,12.7277 C306.3325,9.8267 306.4225,6.9267 306.4675,4.0247 C306.4755,3.4977 306.6685,3.2917 307.2225,3.3017 C310.1215,3.3517 313.0205,3.3737 315.9205,3.3967 C318.7385,3.4197 321.5575,3.4337 324.3755,3.4487 C328.0815,3.4697 331.7865,3.4927 335.4915,3.5017 C336.3015,3.5047 337.1125,3.4187 337.9225,3.4277 C341.2875,3.4677 344.6515,3.5407 348.0165,3.5767 C350.1775,3.5997 352.3385,3.5807 354.5715,3.5807 L354.5715,17.0077 C343.4995,17.0927 332.3865,16.4537 321.1895,17.1077 C321.1895,19.1727 321.1885,21.2207 321.1905,23.2687 C321.1915,25.1267 321.1985,26.9847 321.1955,28.8427 C321.1945,29.2667 321.2045,29.6157 321.7955,29.6137 C324.4095,29.6047 327.0225,29.6207 329.6355,29.6307 C334.2625,29.6467 338.8905,29.6807 343.5175,29.6757 C344.7575,29.6737 345.9965,29.5087 347.2365,29.5067 C348.2965,29.5047 349.3565,29.6307 350.4165,29.6977 C350.5965,29.7097 350.8105,29.7827 350.9495,29.7117 C351.6085,29.3747 352.1515,29.5787 352.7715,30.1077" id="Fill-7"></path>
                        <path d="M107.0529,45.8806 C104.7639,39.2006 102.5239,32.6606 100.2829,26.1206 C100.2209,26.1296 100.1579,26.1396 100.0959,26.1496 C97.8139,32.6976 95.5309,39.2456 93.2189,45.8806 L107.0529,45.8806 Z M131.8649,70.2566 C131.4809,70.2756 131.2259,70.2986 130.9709,70.2996 C126.2589,70.3046 121.5479,70.2986 116.8359,70.3226 C116.3139,70.3256 116.0639,70.1786 115.8579,69.6826 C114.3939,66.1686 112.8789,62.6746 111.4209,59.1576 C111.2159,58.6636 110.9909,58.5086 110.4649,58.5106 C105.2589,58.5356 100.0519,58.5406 94.8469,58.5286 C93.1489,58.5246 91.4509,58.4756 89.7559,58.4006 C89.2559,58.3786 89.0789,58.5896 88.9199,59.0066 C87.5569,62.5666 86.1719,66.1176 84.8049,69.6756 C84.6539,70.0696 84.5109,70.3276 83.9959,70.3246 C78.9959,70.2996 73.9969,70.3046 68.9969,70.2996 C68.8949,70.2996 68.7259,70.2976 68.4629,70.2656 C68.9419,68.8926 69.4369,67.5346 69.9379,66.2266 C71.3639,62.5046 72.8539,58.8066 74.2529,55.0746 C75.6419,51.3706 76.9249,47.6266 78.3039,43.9196 C79.1229,41.7206 80.0749,39.5706 80.9019,37.3746 C82.7509,32.4646 84.5349,27.5296 86.3919,22.6226 C87.7959,18.9136 89.2759,15.2346 90.7159,11.5396 C91.7109,8.9876 92.6929,6.4296 93.6859,3.8776 C93.9109,3.3016 94.2769,3.1696 94.9449,3.2166 C96.6049,3.3336 98.2779,3.2986 99.9459,3.2746 C101.7759,3.2476 103.6039,3.1596 105.4339,3.1086 C105.7719,3.0996 106.1229,3.0946 106.4449,3.1776 C106.6259,3.2236 106.9109,3.4846 106.8889,3.5986 C106.6679,4.7476 107.3189,5.6636 107.6819,6.6396 C108.6929,9.3546 109.7669,12.0466 110.8119,14.7496 C112.3459,18.7166 113.8739,22.6856 115.4069,26.6526 C117.5519,32.2036 119.7319,37.7426 121.8289,43.3116 C122.8199,45.9466 123.5899,48.6646 124.5739,51.3026 C125.9429,54.9786 127.4349,58.6096 128.8449,62.2716 C129.7689,64.6696 130.6389,67.0886 131.5359,69.4976 C131.6149,69.7096 131.7159,69.9146 131.8649,70.2566 L131.8649,70.2566 Z" id="Fill-9"></path>
                    </g>
                </g>
            </g>
        </g>
    </g>
</svg>