<?xml version="1.0" encoding="UTF-8" standalone="no"?>
<svg width="248px" height="88px" viewBox="0 0 248 88" version="1.1" xmlns="http://www.w3.org/2000/svg" xmlns:xlink="http://www.w3.org/1999/xlink">
    <!-- Generator: Sketch 44.1 (41455) - http://www.bohemiancoding.com/sketch -->
    <title>Page 1</title>
    <desc>Created with Sketch.</desc>
    <defs>
        <polygon id="path-1" points="3.45606862e-20 0.136017391 3.45606862e-20 32.280887 157.598963 32.280887 157.598963 0.136017391 0 0.136017391"></polygon>
        <polygon id="path-3" points="130.719589 25.6142493 130.719589 0.563582609 0.115775835 0.563582609 0.115775835 25.6142493 130.719589 25.6142493"></polygon>
    </defs>
    <g id="Page-1" stroke="none" stroke-width="1" fill="none" fill-rule="evenodd">
        <g id="Desktop" transform="translate(-346.000000, -2555.000000)">
            <g id="Page-1" transform="translate(346.000000, 2555.000000)">
                <g id="Group-3" transform="translate(0.000000, 25.850957)">
                    <mask id="mask-2" fill="white">
                        <use xlink:href="#path-1"></use>
                    </mask>
                    <g id="Clip-2"></g>
                    <path d="M14.5711794,20.4914377 C13.391745,19.7555536 11.7628504,19.3174667 9.68513316,19.1778145 L9.68513316,18.9673797 C11.7864391,18.7218725 13.4242591,18.0975826 14.5973183,17.0932348 C15.7710149,16.088887 16.3575445,14.8096986 16.3575445,13.2569449 C16.3575445,11.4586841 15.6454211,10.0978725 14.2211743,9.17514783 C12.9952,8.36911884 11.1444442,7.93166957 8.66890694,7.86152464 L1.96143136,7.86152464 C1.76315887,7.86152464 1.53492237,7.85004638 1.27863445,7.82645217 L0.857863239,7.82645217 C0.285996915,7.82645217 -0.000255012853,7.92593043 -0.000255012853,8.12424928 C-0.000255012853,8.35764058 0.308948072,8.47433623 0.927991774,8.47433623 C1.94421799,8.49793043 2.53329769,8.64395942 2.69714344,8.91242319 C2.77874756,9.08778551 2.81954961,9.67764058 2.81954961,10.6813507 L2.81954961,29.3201333 C2.81954961,30.184829 2.74687095,30.7013507 2.60087609,30.8703362 C2.45488123,31.0399594 1.96716915,31.124771 1.13837738,31.124771 C0.426253985,31.124771 0.0698735219,31.2357275 0.0698735219,31.4576406 C0.0698735219,31.6559594 0.262408226,31.7554377 0.648115167,31.7554377 L4.85136452,31.7554377 C7.44293265,31.7554377 9.00169871,31.7439594 9.52702519,31.7203652 C11.4651229,31.5915536 12.9537604,31.2529449 13.9929378,30.7039014 C16.1178324,29.5713797 17.1805985,27.8311478 17.1805985,25.4838435 C17.1805985,23.2653507 16.3110046,21.6010029 14.5711794,20.4914377 L14.5711794,20.4914377 Z M11.4887116,17.2418145 C10.7644751,18.1237275 9.74888638,18.6115536 8.44130797,18.7046551 L6.23480925,18.7046551 L6.23480925,8.71984348 C7.06360103,8.64969855 7.67116915,8.61462609 8.05623856,8.61462609 C9.53850077,8.61462609 10.5432514,8.81358261 11.0685779,9.21022029 C12.072691,9.93462609 12.5744288,11.4000174 12.5744288,13.6070319 C12.5744288,15.1483072 12.2123105,16.3605391 11.4887116,17.2418145 L11.4887116,17.2418145 Z M12.1542951,29.556713 C11.208835,30.5668 9.9477964,31.0718435 8.37117943,31.0718435 C7.32052648,31.0718435 6.67853162,30.9902203 6.44519486,30.8269739 C6.30493779,30.7453507 6.23480925,30.3652928 6.23480925,29.6880754 L6.23480925,19.4226841 C8.09130283,19.4226841 9.36381697,19.5279014 10.0529892,19.7383362 C12.399745,20.4276696 13.5728041,22.2201913 13.5728041,25.1159014 C13.5728041,27.0665681 13.0997553,28.5466261 12.1542951,29.556713 L12.1542951,29.556713 Z M33.5594365,9.29758261 C34.738871,9.29758261 35.5619249,9.38558261 36.0285985,9.56030725 C36.6125779,9.80581449 37.0531126,10.1622783 37.3508401,10.6290609 C37.6485676,11.0964812 37.9201563,11.9548 38.1656062,13.2040174 L38.8484031,13.2040174 L38.5857398,8.00117681 L20.2841049,8.00117681 L20.2841049,8.64969855 L21.1250098,8.64969855 C22.1055342,8.64969855 22.806182,8.88308986 23.2263157,9.35051014 C23.529781,9.7005971 23.6821512,10.6290609 23.6821512,12.1352638 L23.6821512,27.5684232 C23.6821512,28.7245391 23.6145728,29.4897565 23.480691,29.8634377 C23.3461717,30.2371188 23.0924339,30.5176986 22.7188401,30.7039014 C22.2164648,30.9730029 21.6854005,31.1069159 21.1250098,31.1069159 L20.2841049,31.1069159 L20.2841049,31.7554377 L38.5857398,31.7554377 L40.6347681,25.7994957 L39.9341203,25.7994957 C39.1754571,27.2591478 38.4340072,28.350858 37.7104082,29.0752638 C37.1500175,29.6243072 36.566038,29.9922493 35.9591075,30.1784522 C35.3515393,30.3652928 34.3767527,30.4590319 33.03411,30.4590319 L29.006182,30.4590319 C28.352074,30.4590319 27.9083517,30.3920754 27.6750149,30.2575246 C27.4410406,30.1236116 27.2778324,29.9418725 27.1847527,29.7142203 C27.0910355,29.4865681 27.0444956,28.8476116 27.0444956,27.7960754 L27.0444956,19.9659884 L32.2633337,19.9659884 C33.2559712,19.9659884 33.9910458,20.0826841 34.4698324,20.3160754 C34.948619,20.5501043 35.2935239,20.870858 35.503272,21.2796116 C35.6671177,21.606742 35.830326,22.3483652 35.9935342,23.5044812 L36.6419044,23.5044812 L36.6419044,15.2363072 L35.9935342,15.2363072 C35.9240432,16.590742 35.5848761,17.5370609 34.9779455,18.0739884 C34.5227476,18.482742 33.6174519,18.6874377 32.2633337,18.6874377 L27.0444956,18.6874377 L27.0444956,9.29758261 L33.5594365,9.29758261 Z M63.9321049,8.54448116 L63.9321049,7.87874203 L56.4366396,7.87874203 L56.4366396,8.54448116 L57.3298221,8.54448116 C57.9367527,8.54448116 58.4155393,8.68477101 58.7655445,8.96471304 C59.1742026,9.26888696 59.3788504,9.78222029 59.3788504,10.5066261 C59.3788504,10.6698725 59.3578118,10.8541623 59.3170098,11.0582203 C59.2762077,11.2629159 59.2207424,11.472713 59.1506139,11.688887 C59.0811229,11.9050609 59.004619,12.1154957 58.9230149,12.3195536 C58.8414108,12.5242493 58.7655445,12.7021623 58.6954159,12.8539304 L55.035344,20.3690029 L54.9652154,20.3690029 L49.0278787,8.54448116 L52.1103465,8.54448116 L52.1103465,7.87874203 L41.9174828,7.87874203 L41.9174828,8.54448116 L44.4574108,8.54448116 L51.0596936,21.5952638 L51.0596936,31.0896986 L47.4518992,31.0896986 L47.4518992,31.7554377 L58.8879506,31.7554377 L58.8879506,31.0896986 L55.2801563,31.0896986 L55.2801563,21.5952638 L61.672691,8.54448116 L63.9321049,8.54448116 Z M82.643673,20.7720174 C82.643673,22.838742 82.474727,24.5643072 82.1361974,25.9480754 C81.7970303,27.3318435 81.3188812,28.4445971 80.6998375,29.2850609 C80.0807938,30.1261623 79.3367938,30.7249449 78.4672,31.080771 C77.5969686,31.4372348 76.6253697,31.6151478 75.551128,31.6151478 C73.4141203,31.6151478 71.7622746,30.7479014 70.5949532,29.0134087 C69.4269943,27.2795536 68.8436524,24.6899304 68.8436524,21.2445391 L68.8436524,18.4770029 C68.8436524,16.8305101 68.9749841,15.3498145 69.2376473,14.0361913 C69.5003105,12.7225681 69.9147064,11.6072638 70.480835,10.6902783 C71.0469635,9.77393043 71.7769378,9.07311884 72.6701203,8.58848116 C73.5633028,8.10384348 74.6400946,7.86152464 75.9011332,7.86152464 C76.4149841,7.86152464 76.9371229,7.9201913 77.4688247,8.03624928 C77.9998889,8.15358261 78.51629,8.36337971 79.0186653,8.66691594 C79.5204031,8.97108986 79.9909018,9.38558261 80.4282488,9.91103188 C80.8662334,10.4364812 81.2487527,11.104771 81.5758067,11.9165391 C81.9022231,12.7283072 82.1623362,13.700771 82.354871,14.8332928 C82.5474057,15.9664522 82.643673,17.2915536 82.643673,18.8098725 L82.643673,20.7720174 Z M71.2688247,8.15932174 C69.8503157,8.74343768 68.6186036,9.56923478 67.5736884,10.6379884 C66.5287733,11.7061043 65.7082694,12.9942203 65.1128144,14.5004232 C64.5173594,16.0072638 64.2138941,17.6830899 64.2024185,19.5279014 C64.1903054,21.0462203 64.3509635,22.4095826 64.6837553,23.6186261 C65.016547,24.8270319 65.4660072,25.9015246 66.0321357,26.8414667 C66.5989018,27.7820464 67.25811,28.5906261 68.011673,29.2678435 C68.7645985,29.9450609 69.5615136,30.4998435 70.401781,30.9315536 C71.2426859,31.3639014 72.1033542,31.6821043 72.9850612,31.8868 C73.8667681,32.090858 74.7216987,32.192887 75.551128,32.192887 C77.3725573,32.192887 79.0040021,31.8714957 80.4460997,31.2299884 C81.8875599,30.5878435 83.1109841,29.7059304 84.1150972,28.5842493 C85.1192103,27.4632058 85.8893491,26.1470319 86.4267887,24.6344522 C86.9635907,23.1218725 87.2326293,21.5015246 87.2326293,19.7734087 C87.2326293,17.7997855 86.9227887,16.0391478 86.3043825,14.4914957 C85.6853388,12.9444812 84.8533594,11.6365971 83.8084442,10.5678435 C82.763529,9.49908986 81.5554057,8.68477101 80.1834365,8.12424928 C78.8114674,7.56372754 77.3725573,7.28314783 75.8660689,7.28314783 C74.2199609,7.28314783 72.6873337,7.5752058 71.2688247,8.15932174 L71.2688247,8.15932174 Z M92.1601152,30.9315536 L89.0776473,30.9315536 L89.0776473,31.7554377 L96.8185625,31.7554377 L96.8185625,30.9315536 L93.157853,30.9315536 L93.157853,9.50801739 L93.2279815,9.50801739 L108.972475,32.1578145 L109.602994,31.9830899 L109.602994,8.73706087 L112.668249,8.73706087 L112.668249,7.8965971 L104.997462,7.8965971 L104.997462,8.73706087 L108.587406,8.73706087 L108.587406,24.8882493 L108.535128,24.8882493 L96.7133697,7.8965971 L89.0776473,7.8965971 L89.0776473,8.73706087 L92.1601152,8.73706087 L92.1601152,30.9315536 Z M130.088177,31.7988 C131.115241,31.4780464 132.052413,31.048887 132.899056,30.5113217 C133.745699,29.9743942 134.5101,29.3583942 135.193534,28.6633217 C135.876331,27.968887 136.474336,27.2476696 136.988187,26.4996696 C137.04684,26.4065681 137.064053,26.3364232 137.041102,26.2898725 C137.017514,26.2433217 136.976712,26.2018725 136.918696,26.1668 L136.462861,25.8345681 C136.381257,25.740829 136.293915,25.7759014 136.200197,25.9391478 C135.803015,26.4996696 135.31849,27.0429739 134.746624,27.5684232 C134.174758,28.0938725 133.529575,28.5581043 132.811714,28.9611188 C132.093215,29.3641333 131.302038,29.6880754 130.438182,29.9335826 C129.574326,30.1784522 128.657555,30.3015246 127.688506,30.3015246 C127.11664,30.3015246 126.559437,30.274742 126.016259,30.2224522 C125.473082,30.1701623 124.933092,30.0445391 124.39629,29.8455826 C123.85885,29.6472638 123.319498,29.3552058 122.776321,28.9700464 C122.233143,28.5842493 121.670203,28.0651768 121.086223,27.4109159 C120.409164,26.6750319 119.857061,25.8925971 119.43119,25.0636116 C119.004681,24.2346261 118.669339,23.422858 118.423889,22.6283072 C118.179077,21.8343942 118.009493,21.0844812 117.916413,20.3772928 C117.822696,19.6713797 117.776156,19.066858 117.776156,18.5643652 C117.764681,17.7239014 117.828434,16.8828 117.968691,16.0416986 C118.108948,15.2012348 118.327622,14.3894667 118.625349,13.6070319 C118.923077,12.8245971 119.302408,12.0976406 119.763981,11.4261623 C120.224917,10.7546841 120.773832,10.1680174 121.410089,9.66552464 C122.046347,9.16366957 122.776321,8.76958261 123.599375,8.48326377 C124.422429,8.19694493 125.347488,8.05410435 126.37519,8.05410435 C127.052249,8.05410435 127.680218,8.12424928 128.257822,8.26390145 C128.836064,8.4041913 129.370316,8.59422029 129.860578,8.83335072 C130.35084,9.07311884 130.8003,9.35624928 131.208958,9.68337971 C131.617616,10.0105101 132.002686,10.354858 132.364804,10.7164232 C133.088403,11.4644232 133.660907,12.220713 134.081041,12.9852928 C134.501812,13.7505101 134.828228,14.4188 135.062203,14.9908 C135.120218,15.1196116 135.169946,15.2012348 135.210748,15.2363072 C135.25155,15.2713797 135.31849,15.2771188 135.412208,15.2535246 L135.920321,15.1310899 C136.048465,15.0960174 136.095005,14.9735826 136.05994,14.7631478 C136.025514,14.6113797 135.981524,14.3543942 135.928609,13.9921913 C135.876331,13.6306261 135.817678,13.2218725 135.753925,12.7659304 C135.689534,12.3106261 135.622593,11.8317275 135.552465,11.3298725 C135.482336,10.8280174 135.421133,10.354858 135.368218,9.91103188 C135.31594,9.4672058 135.271951,9.07885797 135.236886,8.74598841 C135.201822,8.41311884 135.184609,8.1943942 135.184609,8.08917681 C135.184609,7.84366957 135.164208,7.69190145 135.123406,7.63387246 C135.081966,7.5752058 134.979961,7.54587246 134.816753,7.54587246 C134.652907,7.54587246 134.545164,7.5548 134.492886,7.57201739 C134.439971,7.58987246 134.396619,7.65108986 134.361555,7.75630725 L134.098892,8.75491594 C134.063827,8.87161159 133.999437,8.93282899 133.906357,8.93856812 C133.81264,8.94494493 133.648794,8.88308986 133.415457,8.75491594 C133.100516,8.56807536 132.709071,8.36337971 132.242398,8.14146667 C131.775087,7.9201913 131.244023,7.71230725 130.648568,7.51972754 C130.053113,7.32714783 129.399005,7.16645217 128.686881,7.03827826 C127.974758,6.90946667 127.22757,6.84506087 126.445318,6.84506087 C125.511334,6.84506087 124.620701,6.9388 123.774696,7.12564058 C122.928053,7.31248116 122.140064,7.56627826 121.410089,7.88766957 C120.680115,8.20906087 120.015169,8.57955362 119.413976,8.99978551 C118.812146,9.42065507 118.290007,9.86448116 117.846285,10.3312638 C117.227241,10.9855246 116.696177,11.6799594 116.252454,12.4158435 C115.808732,13.1517275 115.444064,13.9080174 115.157812,14.6840754 C114.87156,15.4614087 114.661812,16.2495826 114.527293,17.0492348 C114.393411,17.8495246 114.325832,18.6523652 114.325832,19.4577565 C114.325832,20.2873797 114.401699,21.1456986 114.553431,22.032713 C114.705164,22.9203652 114.932763,23.7908 115.236866,24.6433797 C115.540331,25.4959594 115.922213,26.3045391 116.383786,27.0691188 C116.844722,27.8343362 117.384712,28.5090029 118.003755,29.0924812 C118.517606,29.5713797 119.072259,30.0062783 119.667714,30.3978145 C120.263169,30.788713 120.914089,31.124771 121.620475,31.404713 C122.326861,31.6852928 123.102737,31.900829 123.94938,32.0532348 C124.796023,32.2043652 125.727457,32.280887 126.743046,32.280887 C127.945431,32.280887 129.060475,32.1201913 130.088177,31.7988 L130.088177,31.7988 Z M153.097987,0.171089855 C152.677215,0.148133333 152.111087,0.136017391 151.398963,0.136017391 C150.97883,0.136017391 150.598861,0.148133333 150.260331,0.171089855 L149.157401,2.53624928 C148.655025,3.71595942 148.281431,4.61508986 148.036619,5.23364058 C147.989442,5.32737971 147.96649,5.39752464 147.96649,5.44407536 C147.96649,5.56077101 148.030244,5.6188 148.159025,5.6188 C148.369411,5.6188 149.174614,4.89503188 150.57591,3.44685797 L153.710655,0.206162319 L153.097987,0.171089855 Z M157.248321,25.448771 C157.003508,25.448771 156.857514,25.7350899 156.810974,26.3070899 C156.600588,28.9113797 155.736095,30.3831478 154.218768,30.7217565 C153.342799,30.9315536 150.383375,31.036771 145.339221,31.036771 L145.339221,19.4577565 L146.880773,19.4577565 C148.632074,19.4577565 149.717791,19.5279014 150.137925,19.6681913 C151.07191,19.9953217 151.6323,20.8357855 151.819097,22.190858 C151.947879,23.2653507 152.040958,23.9017565 152.099611,24.1000754 C152.157627,24.2990319 152.268557,24.3978725 152.432403,24.3978725 C152.677215,24.3978725 152.800259,24.2461043 152.800259,23.9425681 C152.800259,23.7786841 152.788146,23.5803652 152.765195,23.3469739 C152.682953,22.4242493 152.642789,20.7369449 152.642789,18.2844232 C152.642789,17.8756696 152.662552,17.2679594 152.703992,16.4625681 C152.744794,15.6565391 152.765195,15.0494667 152.765195,14.640713 C152.765195,14.2198435 152.642789,14.0100464 152.397339,14.0100464 C152.186953,14.0100464 152.058809,14.2491768 152.012269,14.7280754 C151.813359,16.6200754 151.43084,17.7615246 150.864712,18.1530609 C150.298583,18.5439594 148.730892,18.7397275 146.162275,18.7397275 L145.339221,18.7397275 L145.339221,8.64969855 L148.159025,8.64969855 C151.276557,8.64969855 153.208917,8.85375652 153.956105,9.26251014 C154.936629,9.82303188 155.648753,11.1315536 156.092475,13.1868 C156.197668,13.7588 156.378727,14.0451188 156.635652,14.0451188 C156.845401,14.0451188 156.950593,13.9341623 156.950593,13.7122493 C156.950593,13.5254087 156.939118,13.3736406 156.915529,13.2569449 L156.77591,11.7851768 C156.612064,10.0449449 156.506871,8.67329275 156.460331,7.66830725 C155.888465,7.77352464 155.257946,7.82645217 154.568773,7.82645217 L149.752856,7.82645217 C147.358922,7.85004638 146.063457,7.86152464 145.864547,7.86152464 L143.237915,7.86152464 L142.213401,7.86152464 C141.868496,7.86152464 141.547817,7.85833623 141.250089,7.8525971 C140.952362,7.84685797 140.689699,7.84111884 140.4621,7.83474203 C140.234501,7.8290029 140.068105,7.82645217 139.962912,7.82645217 C139.460537,7.82645217 139.209987,7.92593043 139.209987,8.12424928 C139.209987,8.33404638 139.390408,8.43926377 139.752526,8.43926377 C140.814655,8.43926377 141.442624,8.50366957 141.635159,8.63184348 C141.827694,8.76065507 141.923961,9.15155362 141.923961,9.80581449 L141.923961,29.1626261 C141.923961,30.0381623 141.862758,30.5814667 141.740352,30.7919014 C141.617946,31.0016986 141.25264,31.124771 140.645709,31.1598435 C139.851344,31.2299884 139.419735,31.2644232 139.349606,31.2644232 C139.209987,31.2880174 139.139858,31.3760174 139.139858,31.5277855 C139.139858,31.7261043 139.355344,31.8249449 139.787591,31.8249449 L140.137596,31.8249449 L141.731426,31.8249449 C142.502203,31.8019884 143.290192,31.7905101 144.096033,31.7905101 C150.751231,31.7905101 155.20503,31.8485391 157.458706,31.9652348 L157.458706,30.8269739 C157.458706,29.892771 157.481658,28.9056406 157.528835,27.8662203 C157.575375,26.8268 157.598963,26.2605391 157.598963,26.1668 C157.598963,25.6885391 157.481658,25.448771 157.248321,25.448771 L157.248321,25.448771 Z" id="Fill-1" fill="#1D1C1B" mask="url(#mask-2)"></path>
                </g>
                <path d="M35.7079835,64.6985565 L32.7472843,77.4464406 L34.1371044,77.4464406 L34.4985851,75.8758319 C34.5706262,76.1889333 34.6847445,76.4567594 34.8415774,76.6793101 C34.9977728,76.9018609 35.1903075,77.0823246 35.4191815,77.2207014 C35.647418,77.3590783 35.9037059,77.4585565 36.1861326,77.5184986 C36.4691969,77.5790783 36.7732997,77.6090493 37.0978036,77.6090493 C37.7359733,77.6090493 38.2925388,77.5159478 38.7681378,77.3291072 C39.2430992,77.1429043 39.6523949,76.8986725 39.9953871,76.597687 C40.3383794,76.2973391 40.6208062,75.9568174 40.8439424,75.5773971 C41.0664411,75.1986145 41.2436751,74.8134551 41.3762817,74.4219188 C41.5088884,74.0310203 41.6019681,73.6516 41.6561584,73.2842957 C41.7103486,72.917629 41.7377625,72.6013391 41.7377625,72.3367014 C41.7377625,71.8667304 41.6740093,71.4184406 41.5477779,70.9911942 C41.4215465,70.5639478 41.2290118,70.1877159 40.9701738,69.8624986 C40.7113357,69.5379188 40.3861943,69.2758319 39.9953871,69.077513 C39.6039424,68.8785565 39.1436442,68.7790783 38.6144925,68.7790783 C38.048364,68.7790783 37.5281378,68.8938609 37.0531763,69.1221507 C36.5775774,69.3510783 36.1650941,69.7126435 35.816364,70.205571 L37.0799527,64.6985565 L35.7079835,64.6985565 Z M35.1482303,73.049629 C35.2444977,72.5866725 35.370729,72.1804696 35.527562,71.8310203 C35.6958704,71.4337449 35.8973306,71.1117159 36.1319424,70.8649333 C36.3671918,70.6181507 36.6075414,70.4287594 36.8542663,70.2961217 C37.1009913,70.1634841 37.3419784,70.073571 37.5765902,70.0251072 C37.8112021,69.9772812 38.0126622,69.9530493 38.1809707,69.9530493 C38.553927,69.9530493 38.8758807,70.0193681 39.1468319,70.1513681 C39.417783,70.2840058 39.6370941,70.4587304 39.8060401,70.675542 C39.9743486,70.8917159 40.0973923,71.141687 40.1758087,71.4248174 C40.2542252,71.7079478 40.2931147,71.9993681 40.2931147,72.3003536 C40.2931147,72.7939188 40.2210735,73.2906725 40.0763537,73.7899768 C39.9322715,74.2899188 39.724436,74.7439478 39.4541224,75.1533391 C39.1831712,75.5627304 38.842729,75.8968754 38.434071,76.1557739 C38.0247753,76.4146725 37.5612895,76.5434841 37.0436134,76.5434841 C36.8510787,76.5434841 36.6375054,76.513513 36.4028936,76.453571 C36.1682817,76.393629 35.945783,76.2820348 35.7347599,76.1194261 C35.5243743,75.9568174 35.3496905,75.7285275 35.211346,75.4332812 C35.0730015,75.1386725 35.0041481,74.7560638 35.0041481,74.2867304 C35.0041481,73.9258029 35.051963,73.5132232 35.1482303,73.049629 L35.1482303,73.049629 Z M50.0416185,68.869629 L48.8679219,68.869629 L45.4564874,75.4600638 L44.0481789,68.869629 L42.6762098,68.869629 L44.5174026,77.3023246 L44.2107496,77.9157739 C43.9098344,78.5298609 43.5815054,78.9424406 43.2270375,79.1528754 C42.8719321,79.3633101 42.4894129,79.4691652 42.0801172,79.4691652 C41.936035,79.4691652 41.8034283,79.4596 41.6835722,79.4417449 C41.5630787,79.4238899 41.4483229,79.4028464 41.3405799,79.3786145 L41.1416699,80.5340928 C41.2742766,80.5462087 41.4062458,80.5583246 41.5388524,80.5704406 C41.6714591,80.5819188 41.8276545,80.5882957 42.0080761,80.5882957 C42.4894129,80.5882957 42.9018961,80.5079478 43.2448884,80.3485275 C43.5878807,80.1884696 43.8824206,79.9863246 44.1291455,79.7433681 C44.3758704,79.5004116 44.5894437,79.2249333 44.7705028,78.9182087 C44.9509244,78.6114841 45.1192329,78.3130493 45.2754283,78.0241797 L50.0416185,68.869629 Z" id="Fill-4" fill="#1D1C1B"></path>
                <path d="M77.2750149,18.1542087 L77.2750149,26.777571 L78.2549018,26.777571 L78.2549018,23.3162377 C78.4691126,23.6140348 78.7579147,23.8327594 79.121308,23.973687 C79.4840638,24.1139768 79.8512823,24.1847594 80.222326,24.1847594 C80.7419147,24.1847594 81.1767116,24.0871942 81.5273542,23.8927014 C81.8779969,23.6988464 82.1585111,23.4482377 82.3688967,23.1421507 C82.5792823,22.8360638 82.7297398,22.5031942 82.8202694,22.143542 C82.9114365,21.7838899 82.9567013,21.4344406 82.9567013,21.0951942 C82.9567013,20.5487014 82.8757347,20.0793681 82.7144391,19.6865565 C82.5531434,19.2937449 82.346583,18.9691652 82.0941203,18.7128174 C81.8422951,18.4564696 81.5585933,18.2677159 81.2449275,18.1478319 C80.9299866,18.0279478 80.6246087,17.9680058 80.3268812,17.9680058 C80.0699558,17.9680058 79.8321563,18.0011652 79.6134828,18.0674841 C79.3941717,18.1338029 79.1978118,18.2186145 79.0244031,18.3219188 C78.8503568,18.4252232 78.6973491,18.5368174 78.5653799,18.6567014 C78.4327733,18.7765855 78.3250303,18.8862667 78.2427887,18.9857449 L78.2549018,18.1542087 L77.2750149,18.1542087 Z M78.7744905,19.4939768 C79.1206704,19.0973391 79.577781,18.8983826 80.1464596,18.8983826 C80.3523825,18.8983826 80.5627681,18.9379188 80.7769789,19.0163536 C80.9918272,19.0954261 81.1849995,19.2191362 81.3584082,19.3887594 C81.5311794,19.5583826 81.6714365,19.779658 81.7785419,20.0525855 C81.8856473,20.325513 81.9392,20.6609333 81.9392,21.057571 C81.9392,21.7443536 81.7849172,22.2921217 81.4757141,22.701513 C81.1665111,23.111542 80.7030252,23.3162377 80.084619,23.3162377 C79.5159404,23.3162377 79.0690303,23.1281217 78.7432514,22.7512522 C78.4174725,22.3750203 78.2549018,21.8521217 78.2549018,21.1819188 C78.2549018,20.453687 78.4283105,19.8912522 78.7744905,19.4939768 L78.7744905,19.4939768 Z M84.2987064,18.1542087 L84.2987064,23.9985565 L85.1918889,23.9985565 L85.1918889,21.057571 C85.1918889,20.8260928 85.2103774,20.6131072 85.2479918,20.4186145 C85.2849686,20.2241217 85.3652977,20.0194261 85.4896165,19.8045275 C85.6547373,19.5067304 85.8593851,19.2771652 86.1035599,19.1158319 C86.3477347,18.9544986 86.6435496,18.8741507 86.9910046,18.8741507 L87.1765265,18.8741507 L87.1765265,18.0177449 L86.8418221,17.9928754 C86.60211,17.9928754 86.3910869,18.0343246 86.2093902,18.1172232 C86.027056,18.1994841 85.8683105,18.313629 85.7318787,18.4583826 C85.5948093,18.6031362 85.4775033,18.7663826 85.3780483,18.9481217 C85.2785933,19.1304986 85.1957141,19.3205275 85.1300483,19.5188464 L85.1051846,19.5188464 L85.1051846,18.1542087 L84.2987064,18.1542087 Z M92.832074,21.2437739 L92.832074,20.9957159 C92.832074,20.6730493 92.800835,20.3338029 92.7389943,19.9779768 C92.6771537,19.6227884 92.5572977,19.295658 92.3794262,18.9978609 C92.2015548,18.7000638 91.9516422,18.4520058 91.6290509,18.253687 C91.3064596,18.0547304 90.8844134,17.9558899 90.3635496,17.9558899 C89.8917758,17.9558899 89.4926807,18.0426145 89.1662643,18.2160638 C88.8398478,18.3901507 88.575272,18.6197159 88.3725368,18.9047594 C88.1698015,19.1904406 88.0231692,19.5188464 87.9320021,19.8912522 C87.840835,20.263658 87.7955702,20.6481797 87.7955702,21.0454551 C87.7955702,21.4344406 87.8344596,21.8164116 87.9135136,22.1932812 C87.9919301,22.569513 88.1264494,22.9023826 88.3164339,23.1918899 C88.507056,23.4813971 88.763344,23.7154261 89.0859352,23.8927014 C89.4085265,24.0706145 89.8133594,24.1598899 90.301709,24.1598899 C90.9296781,24.1598899 91.4384288,24.0170493 91.8273234,23.7313681 C92.216218,23.4463246 92.5177707,23.0433101 92.732619,22.521687 L91.8643003,22.1620348 C91.8228607,22.3106145 91.7654828,22.4598319 91.6908915,22.6084116 C91.6163003,22.757629 91.5193954,22.8877159 91.3995393,22.9993101 C91.2790458,23.111542 91.134326,23.2020928 90.9653799,23.2722377 C90.7957964,23.3430203 90.5994365,23.3780928 90.3756627,23.3780928 C90.0779352,23.3780928 89.8280226,23.3283536 89.6252874,23.2288754 C89.4225522,23.1300348 89.259344,22.9973971 89.1356627,22.8322377 C89.011344,22.6664406 88.9220895,22.4700348 88.8685368,22.2423826 C88.8149841,22.0153681 88.7882077,21.7730493 88.7882077,21.5167014 L88.7882077,21.2437739 L92.832074,21.2437739 Z M88.7882077,20.4747304 C88.7882077,19.9531072 88.9265522,19.5316 89.2038787,19.2089333 C89.4805676,18.8862667 89.8675496,18.7249333 90.3635496,18.7249333 C90.6198375,18.7249333 90.8429738,18.7746725 91.0335959,18.8741507 C91.2235805,18.9729913 91.3785008,19.1037159 91.4983568,19.2650493 C91.6182129,19.4257449 91.7074674,19.6119478 91.7654828,19.8230203 C91.8228607,20.0340928 91.8521871,20.2509043 91.8521871,20.4747304 L88.7882077,20.4747304 Z M94.6222643,23.6943826 C95.023272,24.0125855 95.6085265,24.1720058 96.3773902,24.1720058 C96.8236627,24.1720058 97.2310458,24.0833681 97.5995393,23.9054551 C97.9673954,23.727542 98.2504596,23.4960638 98.4487321,23.2103826 C98.6476422,22.9253391 98.7464596,22.6084116 98.7464596,22.261513 C98.7464596,21.9388464 98.6661306,21.657629 98.504835,21.4172232 C98.3435393,21.1774551 98.128691,21.0020928 97.8596524,20.8904986 C97.5912514,20.7782667 97.097164,20.6233101 96.3773902,20.4249913 C95.8565265,20.2757739 95.5422231,20.1807594 95.4344802,20.1393101 C95.2935856,20.0653391 95.1864802,19.9824406 95.1118889,19.8912522 C95.0207219,19.8089913 94.9754571,19.7012232 94.9754571,19.5685855 C94.9754571,19.3453971 95.0666242,19.1553681 95.2483208,18.9978609 C95.4300175,18.8409913 95.7736473,18.7619188 96.2779352,18.7619188 C96.6336781,18.7619188 96.9250303,18.8511942 97.1526293,19.0291072 C97.3802283,19.2070203 97.51411,19.4531652 97.5555496,19.767542 L98.5481871,19.6431942 C98.4818838,19.2293391 98.3582026,18.9156 98.1758684,18.7000638 C97.9941717,18.4851652 97.7276833,18.3053391 97.3757656,18.1605855 C97.0244853,18.0158319 96.629853,17.9431362 96.1912308,17.9431362 C95.8603517,17.9431362 95.5645368,17.9864986 95.3044237,18.0732232 C95.043673,18.1599478 94.8269121,18.2651652 94.6528658,18.3888754 C94.4297296,18.5291652 94.2684339,18.7089913 94.1689789,18.9270783 C94.0701614,19.1458029 94.0204339,19.3996 94.0204339,19.6884696 C94.0204339,19.9365275 94.0841871,20.1903246 94.2129686,20.4504986 C94.3404751,20.7100348 94.5495856,20.8981507 94.8390252,21.013571 C95.1284648,21.1289913 95.6493285,21.2858609 96.402254,21.483542 C96.9479815,21.6321217 97.2954365,21.7564696 97.4439815,21.8553101 C97.6097398,21.9956 97.692619,22.1562957 97.692619,22.3380348 C97.692619,22.6103246 97.582326,22.847542 97.3636524,23.049687 C97.1443414,23.2524696 96.8153748,23.3532232 96.3773902,23.3532232 C95.8890406,23.3532232 95.5230972,23.2397159 95.2795599,23.0120638 C95.0353851,22.7844116 94.88429,22.4891652 94.8269121,22.1250493 L93.8463877,22.2238899 C93.9624185,22.8858029 94.220619,23.3761797 94.6222643,23.6943826 L94.6222643,23.6943826 Z M104.055827,23.9118319 C104.45301,23.7543246 104.796002,23.5311362 105.085442,23.241629 L104.651282,22.6332812 C104.41157,22.873687 104.130419,23.0598899 103.807827,23.1918899 C103.485236,23.3245275 103.154357,23.3902087 102.81519,23.3902087 C102.493236,23.3902087 102.205709,23.3347304 101.953246,23.2231362 C101.700784,23.111542 101.484023,22.9623246 101.302326,22.7761217 C101.119992,22.5899188 100.975272,22.3731072 100.868167,22.1250493 C100.760424,21.8763536 100.697946,21.6117159 100.682007,21.3304986 L105.482624,21.3304986 L105.482624,21.0951942 C105.482624,20.6481797 105.418233,20.2324116 105.290089,19.8478899 C105.161946,19.4633681 104.975786,19.1279478 104.732249,18.8429043 C104.488074,18.5572232 104.188434,18.3321217 103.832691,18.1663246 C103.476948,18.0011652 103.07594,17.9182667 102.629668,17.9182667 C102.207622,17.9182667 101.818727,17.9992522 101.463622,18.1605855 C101.107879,18.3219188 100.799313,18.5431942 100.5392,18.8244116 C100.278449,19.105629 100.075714,19.4346725 99.9309943,19.8109043 C99.7862746,20.1871362 99.7142334,20.5901507 99.7142334,21.0205855 C99.7142334,21.483542 99.7888247,21.9076 99.9373697,22.2921217 C100.086552,22.6766435 100.293113,23.005687 100.557688,23.2786145 C100.822264,23.551542 101.14103,23.7645275 101.512712,23.917571 C101.88503,24.0706145 102.290501,24.1471362 102.728485,24.1471362 C103.216197,24.1471362 103.659282,24.0687014 104.055827,23.9118319 L104.055827,23.9118319 Z M100.682007,20.6609333 C100.689658,20.4294551 100.737472,20.1954261 100.824177,19.9594841 C100.911519,19.723542 101.0352,19.5111942 101.196496,19.3205275 C101.357791,19.1304986 101.556064,18.975542 101.791951,18.8550203 C102.027838,18.7351362 102.302614,18.6751942 102.616917,18.6751942 C102.956084,18.6751942 103.247437,18.737687 103.491611,18.8613971 C103.735149,18.9857449 103.937884,19.1426145 104.099179,19.3332812 C104.260475,19.5233101 104.380331,19.7362957 104.459385,19.9722377 C104.537802,20.207542 104.576691,20.4371072 104.576691,20.6609333 L100.682007,20.6609333 Z M106.723262,23.9985565 L107.789853,23.9985565 L107.789853,20.9657449 C107.789853,20.5531652 107.803879,20.2502667 107.833205,20.0564116 C107.861894,19.8625565 107.959437,19.6661507 108.124557,19.4678319 C108.355981,19.2038319 108.616732,19.0265565 108.906172,18.9360058 C109.013915,18.8945565 109.187323,18.8741507 109.427035,18.8741507 C109.907097,18.8741507 110.216938,19.0680058 110.357832,19.4557159 C110.473226,19.6789043 110.531241,19.9550203 110.531241,20.2847014 L110.531241,23.9985565 L111.535992,23.9985565 L111.535992,20.2139188 C111.535992,19.6349043 111.465863,19.1802377 111.324969,18.8492812 C111.035529,18.2702667 110.473226,17.9807594 109.638059,17.9807594 C109.241514,17.9807594 108.885771,18.0630203 108.571467,18.2288174 C108.257164,18.3939768 107.988125,18.6254551 107.764989,18.9232522 L107.764989,18.1293391 L106.723262,18.1293391 L106.723262,23.9985565 Z M114.418912,18.9729913 L115.47339,18.9729913 L115.47339,18.1542087 L114.418912,18.1542087 L114.418912,16.305571 L113.401411,16.305571 L113.401411,18.1542087 L112.459138,18.1542087 L112.459138,18.9729913 L113.401411,18.9729913 L113.401411,23.0433101 C113.401411,23.2084696 113.414161,23.357687 113.439025,23.489687 C113.463889,23.6223246 113.517442,23.7339188 113.600321,23.8244696 C113.682562,23.915658 113.798593,23.9838899 113.947776,24.0291652 C114.096321,24.0750783 114.290768,24.0973971 114.53048,24.0973971 C114.720465,24.0973971 114.914912,24.0833681 115.113822,24.0540348 C115.312095,24.0253391 115.431951,24.0068464 115.47339,23.9985565 L115.47339,23.1797739 C115.332496,23.2288754 115.208814,23.2645855 115.101071,23.2849913 C114.993329,23.3053971 114.911087,23.3162377 114.853071,23.3162377 C114.696239,23.3162377 114.584033,23.2722377 114.518367,23.185513 C114.452064,23.0987884 114.418912,22.9482957 114.418912,22.7327594 L114.418912,18.9729913 Z M116.279868,22.4477159 C116.353822,22.745513 116.476228,23.0018609 116.645812,23.2167594 C116.814758,23.431658 117.01558,23.6057449 117.247005,23.7377449 C117.478429,23.8703826 117.730892,23.9673101 118.003755,24.0291652 C118.276619,24.091658 118.557771,24.1222667 118.84721,24.1222667 C119.13665,24.1222667 119.426089,24.0891072 119.715529,24.0234261 C120.004969,23.9571072 120.267632,23.8538029 120.503519,23.7128754 C120.739406,23.5725855 120.92939,23.3863826 121.07411,23.1549043 C121.21883,22.9234261 121.291508,22.641571 121.291508,22.3106145 C121.291508,22.0459768 121.230943,21.7979188 121.111724,21.5664406 C120.991231,21.3349623 120.81591,21.1404696 120.584485,20.9829623 C120.402151,20.8592522 120.205791,20.7706145 119.994768,20.7164116 C119.784383,20.6628464 119.570809,20.6150203 119.355961,20.573571 L118.512506,20.4249913 C118.379899,20.4084116 118.251755,20.383542 118.128074,20.3503826 C118.003755,20.3172232 117.892187,20.2700348 117.792732,20.207542 C117.693915,20.145687 117.612948,20.0653391 117.551107,19.9658609 C117.489267,19.8663826 117.458028,19.7343826 117.458028,19.5685855 C117.458028,19.4117159 117.497555,19.2771652 117.575971,19.165571 C117.654388,19.0539768 117.755755,18.9672522 117.880074,18.9047594 C118.003755,18.8429043 118.138275,18.797629 118.282994,18.7682957 C118.427714,18.7396 118.566059,18.7249333 118.698665,18.7249333 C119.037832,18.7249333 119.343848,18.797629 119.616712,18.9423826 C119.889575,19.0871362 120.084023,19.3205275 120.199416,19.6431942 L121.030758,19.4697449 C120.956167,19.1961797 120.844598,18.9672522 120.696053,18.7810493 C120.546871,18.5948464 120.368999,18.4437159 120.162439,18.327658 C119.955879,18.2122377 119.72828,18.1274261 119.48028,18.0738609 C119.23228,18.019658 118.975354,17.9928754 118.710778,17.9928754 C118.446203,17.9928754 118.183539,18.0260348 117.923426,18.0923536 C117.662676,18.1586725 117.429339,18.2619768 117.222141,18.4022667 C117.01558,18.5431942 116.84791,18.7211072 116.719766,18.9360058 C116.591622,19.1509043 116.527868,19.4117159 116.527868,19.7178029 C116.527868,19.9741507 116.575046,20.1954261 116.670676,20.381629 C116.765668,20.5678319 116.891262,20.7247014 117.048732,20.8528754 C117.205565,20.9810493 117.387899,21.0843536 117.59446,21.1634261 C117.80102,21.2418609 118.016506,21.3018029 118.239642,21.3432522 L119.194665,21.5167014 C119.318984,21.541571 119.449041,21.5709043 119.585472,21.6034261 C119.721904,21.6365855 119.846223,21.6863246 119.957791,21.7526435 C120.069359,21.8189623 120.160526,21.9037739 120.230655,22.0070783 C120.300784,22.1103826 120.335848,22.2404696 120.335848,22.3979768 C120.335848,22.5880058 120.290583,22.745513 120.199416,22.8692232 C120.108249,22.993571 119.994768,23.0924116 119.858336,23.1670203 C119.721904,23.241629 119.570809,23.2951942 119.405688,23.3283536 C119.23993,23.361513 119.078634,23.3780928 118.921802,23.3780928 C118.748393,23.3780928 118.564146,23.357687 118.369699,23.3162377 C118.175251,23.2747884 117.993555,23.2103826 117.823971,23.123658 C117.654388,23.0369333 117.509668,22.9234261 117.389812,22.7824986 C117.269956,22.641571 117.193452,22.4719478 117.1603,22.273629 L116.279868,22.4477159 Z" id="Fill-6" fill="#1D1C1B"></path>
                <path d="M44.1355846,12.4673681 L44.1355846,6.0440058 L38.4889625,6.0440058 L38.4889625,7.40481739 L42.7240884,7.40481739 L42.7240884,7.57571594 C42.7240884,8.18215072 42.6086951,8.71652754 42.3798211,9.17884638 C42.149672,9.64244058 41.843019,10.0365275 41.4585871,10.3623826 C41.0735177,10.6882377 40.6291578,10.9337449 40.1242324,11.099542 C39.6193069,11.2653391 39.085055,11.3482377 38.5233892,11.3482377 C37.9374972,11.3482377 37.3751938,11.2506725 36.8358416,11.055542 C36.2964895,10.8610493 35.820253,10.5600638 35.4071321,10.1532232 C34.9940113,9.74638261 34.660582,9.22794783 34.4081193,8.59791884 C34.1556566,7.96725217 34.0294252,7.21670145 34.0294252,6.34562899 C34.0294252,5.72644058 34.1186797,5.11617971 34.2965512,4.51484638 C34.4744226,3.91351304 34.7466488,3.37722319 35.1145049,2.90725217 C35.4817234,2.43791884 35.9522221,2.05977391 36.526001,1.77281739 C37.0997799,1.48649855 37.7768391,1.34302029 38.5578159,1.34302029 C39.5217645,1.34302029 40.3448185,1.57258551 41.028253,2.03171594 C41.7110499,2.49148406 42.1840987,3.13426667 42.4486746,3.96070145 L44.1355846,3.53026667 C43.825744,2.84093333 43.4496,2.26702029 43.0077902,1.80788986 C42.5659805,1.34875942 42.0922941,0.987194203 41.5873686,0.723194203 C41.0824432,0.459194203 40.563492,0.272991304 40.0292401,0.163310145 C39.4956257,0.0542666667 38.9881501,6.3768116e-05 38.5061758,6.3768116e-05 C37.6219188,6.3768116e-05 36.7982272,0.149281159 36.0351013,0.447715942 C35.2719753,0.746150725 34.6089419,1.17403478 34.0466386,1.73073043 C33.4843352,2.28742609 33.0425254,2.97038261 32.7212093,3.7796 C32.3998931,4.58881739 32.239235,5.51026667 32.239235,6.54331014 C32.239235,7.4622087 32.3852298,8.30331014 32.6784946,9.06661449 C32.9711219,9.82991884 33.381055,10.4867304 33.9089316,11.0383246 C34.4368082,11.5892812 35.0711527,12.0171652 35.8113275,12.3207014 C36.5521398,12.6248754 37.3751938,12.7772812 38.2817645,12.7772812 C38.9129213,12.7772812 39.4784123,12.7084116 39.9776,12.5706725 C40.4774252,12.4329333 40.9103095,12.2639478 41.277528,12.0624406 C41.6447465,11.8622087 41.9488494,11.6434841 42.1898365,11.4081797 C42.4314612,11.1728754 42.6086951,10.9579768 42.7240884,10.7628464 L42.7240884,12.4673681 L44.1355846,12.4673681 Z M51.3046334,0.29275942 L49.5482324,0.29275942 L45.6057337,12.4673681 L46.8795229,12.4673681 L47.9646026,8.91994783 L52.4751424,8.91994783 L53.6972915,12.4673681 L55.2643455,12.4673681 L51.3046334,0.29275942 Z M52.1308751,7.76638261 L48.3949368,7.76638261 L50.2711938,1.92841159 L52.1308751,7.76638261 Z M58.0943506,1.5151942 L62.3639033,1.5151942 C63.0065357,1.5151942 63.5089111,1.69310725 63.8703918,2.04893333 C64.2318725,2.4053971 64.4129316,2.85815072 64.4129316,3.40974493 C64.4129316,3.96070145 64.2490859,4.41154203 63.9220319,4.7609913 C63.5949779,5.11171594 63.1098159,5.28644058 62.4671835,5.28644058 L58.0943506,5.28644058 L58.0943506,1.5151942 Z M64.2235846,12.4673681 L65.7727877,12.4673681 L63.2417851,6.47444058 C64.0686643,6.31438261 64.7055589,5.96429565 65.1531064,5.42417971 C65.600654,4.88470145 65.8244278,4.21322319 65.8244278,3.40974493 C65.8244278,2.44493333 65.5203249,1.68162899 64.9121193,1.1191942 C64.3032761,0.55675942 63.4139188,0.275542029 62.2434098,0.275542029 L56.7172812,0.275542029 L56.7172812,12.4673681 L58.0943506,12.4673681 L58.0943506,6.54331014 L61.8475023,6.54331014 L64.2235846,12.4673681 Z M68.4446848,12.4673681 L69.7873275,8.7649913 L74.8837594,8.7649913 L76.3124689,12.4673681 L78.1370859,12.4673681 L73.1445717,0.258324638 L71.4060216,0.258324638 L66.7399239,12.4673681 L68.4446848,12.4673681 Z M71.5953686,3.87461449 C71.8816206,3.10557101 72.1002941,2.32441159 72.2494766,1.53241159 C72.4445614,2.19815072 72.7314509,3.04817971 73.110145,4.08122319 L74.3839342,7.45646957 L70.2520884,7.45646957 L71.5953686,3.87461449 Z M87.4425049,12.1402377 C88.2515332,11.7729333 88.9489933,11.2621507 89.5342478,10.6078899 L89.5342478,6.19896232 L83.7671321,6.19896232 L83.7671321,7.52533913 L88.0194715,7.52533913 L88.0194715,10.073513 C87.8581758,10.2112522 87.6662787,10.3553681 87.4425049,10.5039478 C87.2187311,10.6538029 86.9662684,10.7883536 86.6851167,10.9088754 C86.403965,11.0293971 86.0998622,11.1269623 85.7728082,11.201571 C85.4457542,11.2761797 85.0982992,11.3138029 84.7310807,11.3138029 C84.0533841,11.3138029 83.4254149,11.1900928 82.8458982,10.9433101 C82.2663815,10.6965275 81.7640062,10.3579188 81.3394098,9.92748406 C80.9148134,9.49704928 80.5845717,8.98307826 80.3493224,8.3862087 C80.114073,7.78933913 79.9967671,7.13507826 79.9967671,6.42278841 C79.9967671,5.68881739 80.114073,5.01670145 80.3493224,4.40835362 C80.5845717,3.8000058 80.9148134,3.27455652 81.3394098,2.83264348 C81.7640062,2.39073043 82.2663815,2.04893333 82.8458982,1.80788986 C83.4254149,1.56684638 84.0533841,1.44632464 84.7310807,1.44632464 C85.4769933,1.44632464 86.1515023,1.59873043 86.7539702,1.90290435 C87.356438,2.20707826 87.8581758,2.61710725 88.2604586,3.13426667 L89.4653943,2.32441159 C89.1899805,2.00365797 88.8884278,1.70458551 88.5613738,1.42910725 C88.2343198,1.15362899 87.8753892,0.915773913 87.4858571,0.714266667 C87.0950499,0.514034783 86.6704535,0.355889855 86.2114303,0.241107246 C85.7524072,0.126324638 85.2589573,0.0689333333 84.7310807,0.0689333333 C83.8589368,0.0689333333 83.040983,0.22133913 82.2778571,0.524875362 C81.5140936,0.829686957 80.8459599,1.26012174 80.272181,1.81681739 C79.6977645,2.37351304 79.2444792,3.04244058 78.9116874,3.82296232 C78.5788956,4.60348406 78.4124997,5.47009275 78.4124997,6.42278841 C78.4124997,7.36464348 78.5788956,8.21977391 78.9116874,8.98881739 C79.2444792,9.75786087 79.6977645,10.4178609 80.272181,10.9694551 C80.8459599,11.5204116 81.5140936,11.9451072 82.2778571,12.243542 C83.040983,12.5419768 83.8589368,12.6911942 84.7310807,12.6911942 C85.729456,12.6911942 86.6334766,12.507542 87.4425049,12.1402377 L87.4425049,12.1402377 Z M91.5877388,12.4673681 L100.575029,12.4673681 L100.575029,11.0383246 L93.2064329,11.0383246 L93.2064329,6.90551304 L99.8864946,6.90551304 L99.8864946,5.51026667 L93.2064329,5.51026667 L93.2064329,1.84232464 L100.437322,1.84232464 L100.437322,0.361628986 L91.5877388,0.361628986 L91.5877388,12.4673681 Z" id="Fill-8" fill="#1D1C1B"></path>
                <path d="M121.442476,12.4673681 L121.442476,0.309976812 L119.341808,0.309976812 L115.588656,10.2801217 L111.870569,0.309976812 L109.7699,0.309976812 L109.7699,12.4673681 L111.35353,12.4673681 C111.35353,12.4214551 111.35098,12.243542 111.345242,11.933629 C111.339504,11.6237159 111.330579,11.2302667 111.319103,10.7539188 C111.307628,10.277571 111.29934,9.74064348 111.293602,9.14377391 C111.287864,8.54690435 111.278939,7.93855652 111.267463,7.31873043 C111.233037,5.87183188 111.204348,4.24191884 111.181396,2.42771594 L114.951761,12.4673681 L116.208975,12.4673681 L120.048193,2.27275942 C120.001653,4.1213971 119.962126,5.7800058 119.9277,7.24986087 C119.915587,7.88116522 119.904111,8.5009913 119.893273,9.10933913 C119.88116,9.71832464 119.869684,10.2629043 119.858846,10.745629 C119.846733,11.2277159 119.838445,11.6262667 119.832707,11.9419188 C119.82697,12.2582087 119.82442,12.4329333 119.82442,12.4673681 L121.442476,12.4673681 Z M129.187854,8.86829565 C129.187854,9.2356 129.124738,9.58313623 128.998507,9.91026667 C128.872276,10.2373971 128.697592,10.5300928 128.473818,10.7883536 C128.249407,11.0466145 127.979731,11.2506725 127.664152,11.3998899 C127.348574,11.5491072 126.995381,11.6237159 126.605849,11.6237159 C126.3757,11.6237159 126.155114,11.597571 125.942815,11.5459188 C125.730517,11.4942667 125.540533,11.4113681 125.374774,11.2965855 C125.208378,11.1818029 125.075772,11.0351362 124.978867,10.8572232 C124.880687,10.6793101 124.832234,10.4586725 124.832234,10.1940348 C124.832234,9.76997681 124.94444,9.43391884 125.168214,9.18713623 C125.391988,8.94035362 125.673139,8.75351304 126.011669,8.62725217 C126.350198,8.5009913 126.711679,8.42064348 127.096111,8.3862087 C127.480543,8.35177391 127.833736,8.33455652 128.155052,8.33455652 L129.187854,8.33455652 L129.187854,8.86829565 Z M128.137839,7.3876 C127.621438,7.3876 127.081448,7.41310725 126.519782,7.46475942 C125.956841,7.51641159 125.451916,7.65733913 125.004368,7.88690435 C124.545345,8.08203478 124.178126,8.38365797 123.902713,8.79113623 C123.627299,9.19861449 123.489592,9.64945507 123.489592,10.1423826 C123.489592,10.5447594 123.566733,10.9005855 123.721653,11.2104986 C123.876574,11.5204116 124.083134,11.7786725 124.341335,11.9852812 C124.600173,12.1918899 124.901088,12.3500348 125.245355,12.4584406 C125.589623,12.5674841 125.951103,12.6223246 126.329797,12.6223246 C126.984543,12.6223246 127.552584,12.4871362 128.034558,12.2173971 C128.516533,11.9482957 128.900965,11.5204116 129.187854,10.9350203 L129.325561,12.4673681 L130.582774,12.4673681 C130.513921,12.1918899 130.470569,11.9106725 130.453355,11.6237159 C130.436142,11.3367594 130.427854,11.0440638 130.427854,10.745629 L130.427854,7.5769913 C130.427854,7.33594783 130.424666,7.09490435 130.418929,6.85386087 C130.413191,6.61217971 130.387052,6.37751304 130.341787,6.14731014 C130.295247,5.91774493 130.226394,5.69391884 130.134589,5.47583188 C130.042785,5.25774493 129.910815,5.05687536 129.738682,4.87322319 C129.428841,4.52887536 129.044409,4.31078841 128.585386,4.21896232 C128.126363,4.12713623 127.673078,4.08122319 127.22553,4.08122319 C126.846836,4.08122319 126.461767,4.1182087 126.071597,4.19281739 C125.681427,4.26806377 125.319947,4.39113623 124.987155,4.56331014 C124.654363,4.73548406 124.370024,4.96504928 124.134774,5.2520058 C123.899525,5.53896232 123.75353,5.89542609 123.696152,6.31948406 L124.883875,6.50887536 C124.941252,6.22255652 125.041345,5.98661449 125.185427,5.80296232 C125.328872,5.61931014 125.501006,5.47328116 125.701828,5.36423768 C125.902651,5.2551942 126.123237,5.1773971 126.364224,5.13148406 C126.605849,5.08557101 126.851936,5.06261449 127.105037,5.06261449 C127.839474,5.06261449 128.3699,5.21183188 128.697592,5.51026667 C129.024646,5.80933913 129.187854,6.31948406 129.187854,7.04325217 L129.187854,7.3876 L128.137839,7.3876 Z M137.473222,4.37391884 L137.473222,5.20035362 L137.387155,5.20035362 C137.352728,5.13148406 137.280687,5.03710725 137.171669,4.91658551 C137.062651,4.79542609 136.922394,4.67490435 136.75026,4.55438261 C136.578126,4.43386087 136.371566,4.33055652 136.129941,4.24446957 C135.888954,4.15838261 135.61354,4.11565797 135.3037,4.11565797 C134.856152,4.11565797 134.439844,4.20748406 134.055412,4.39113623 C133.67098,4.57478841 133.338826,4.84452754 133.059587,5.20035362 C132.780348,5.55617971 132.561674,6.00128116 132.402929,6.53502029 C132.244183,7.06875942 132.164492,7.68029565 132.164492,8.3689913 C132.164492,9.73554203 132.415042,10.8030203 132.916142,11.5720638 C133.41788,12.3411072 134.21352,12.725629 135.3037,12.725629 C135.808625,12.725629 136.242147,12.6140348 136.603628,12.389571 C136.965108,12.1657449 137.225859,11.8877159 137.387155,11.5548464 L137.473222,11.5548464 L137.473222,12.0713681 C137.473222,12.5190203 137.410106,12.903542 137.283875,13.2249333 C137.157006,13.5463246 136.993797,13.8077739 136.792975,14.0086435 C136.592152,14.209513 136.365191,14.3587304 136.112728,14.4562957 C135.860265,14.5538609 135.602065,14.6029623 135.338126,14.6029623 C135.028286,14.6029623 134.755422,14.5685275 134.52081,14.499658 C134.284923,14.4307884 134.075813,14.341513 133.892204,14.2324696 C133.708594,14.1234261 133.547936,14.0086435 133.410229,13.8881217 C133.272522,13.7676 133.157767,13.6553681 133.065962,13.5520638 C132.952481,13.7471942 132.839001,13.9512522 132.72552,14.1636 C132.612039,14.3759478 132.493458,14.5793681 132.368502,14.7751362 C132.685993,14.9925855 133.067875,15.2023826 133.514785,15.4032522 C133.961057,15.6041217 134.534836,15.7048754 135.234846,15.7048754 C135.716821,15.7048754 136.173294,15.6302667 136.603628,15.4810493 C137.033962,15.3318319 137.412656,15.0933391 137.73971,14.7662087 C138.066764,14.4390783 138.328152,14.0201217 138.523237,13.5093391 C138.718322,12.9979188 138.815864,12.3812812 138.815864,11.6581507 L138.815864,4.37391884 L137.473222,4.37391884 Z M137.467484,9.79803478 C137.467484,10.1200638 137.406918,10.395542 137.286425,10.6251072 C137.165931,10.8546725 137.013561,11.0440638 136.829952,11.1932812 C136.646342,11.3424986 136.44297,11.451542 136.219196,11.5204116 C135.995422,11.5892812 135.774198,11.6237159 135.556162,11.6237159 C134.844677,11.6237159 134.327638,11.3424986 134.006959,10.7800638 C133.685006,10.217629 133.524985,9.41351304 133.524985,8.3689913 C133.524985,7.33594783 133.685006,6.55223768 134.006959,6.01849855 C134.327638,5.48475942 134.844677,5.21757101 135.556162,5.21757101 C135.79715,5.21757101 136.032399,5.26348406 136.261911,5.35531014 C136.491422,5.44713623 136.695432,5.57658551 136.873304,5.74302029 C137.051175,5.90945507 137.19462,6.10458551 137.303638,6.32841159 C137.412656,6.55223768 137.467484,6.79646957 137.467484,7.06046957 L137.467484,9.79803478 Z M146.565705,12.4673681 L148.029479,12.4673681 C147.833756,12.123658 147.704975,11.785687 147.641859,11.4534551 C147.578743,11.1212232 147.547504,10.2960638 147.547504,8.97861449 L147.547504,7.08788986 C147.547504,6.49229565 147.518178,6.06313623 147.4608,5.79913623 C147.403422,5.39867246 147.277191,5.08046957 147.082106,4.8458029 C146.887021,4.61113623 146.568255,4.40452754 146.127083,4.22661449 C145.684635,4.04933913 145.085355,3.96070145 144.327967,3.96070145 C143.638795,3.96070145 143.024851,4.06273043 142.485499,4.26615072 C141.946147,4.46957101 141.521551,4.74504928 141.21171,5.09258551 C140.901869,5.44012174 140.706147,5.92348406 140.626456,6.54331014 L142.020738,6.69826667 C142.169921,6.11287536 142.396882,5.69965797 142.700985,5.45861449 C143.005088,5.21757101 143.472399,5.09704928 144.104193,5.09704928 C144.873057,5.09704928 145.418147,5.25774493 145.739463,5.57913623 C146.003402,5.83165797 146.135371,6.2333971 146.135371,6.7849913 L146.135371,7.16377391 C145.641921,7.35890435 144.821417,7.53107826 143.673859,7.68029565 C143.076492,7.76064348 142.628944,7.83525217 142.330579,7.90412174 C142.009263,8.01890435 141.687947,8.16557101 141.36663,8.34284638 C141.045314,8.5213971 140.804327,8.79113623 140.643669,9.15270145 C140.482373,9.51426667 140.402682,9.87328116 140.402682,10.2284696 C140.402682,10.9751942 140.646219,11.569513 141.133931,12.0107884 C141.621643,12.4533391 142.313366,12.6739768 143.208461,12.6739768 C143.736337,12.6739768 144.250188,12.5764116 144.749376,12.3812812 C145.248563,12.1861507 145.750939,11.8877159 146.255864,11.4859768 C146.301767,11.8303246 146.405047,12.1574551 146.565705,12.4673681 L146.565705,12.4673681 Z M146.135371,8.7822087 C146.135371,9.44794783 146.055042,9.91281739 145.894384,10.1768174 C145.710774,10.613629 145.403484,10.9605275 144.97315,11.2187884 C144.542815,11.4770493 144.074867,11.6064986 143.569941,11.6064986 C142.984687,11.6064986 142.56009,11.4713101 142.296152,11.201571 C142.032214,10.9318319 141.900245,10.5964116 141.900245,10.1940348 C141.900245,10.0110203 141.96081,9.80951304 142.081304,9.59142609 C142.201797,9.37333913 142.379669,9.21009275 142.614918,9.10104928 C142.850168,8.9920058 143.265839,8.89125217 143.863206,8.79942609 C144.907484,8.63873043 145.664872,8.47229565 146.135371,8.30012174 L146.135371,8.7822087 Z M155.463103,12.4673681 L155.463103,11.3826725 L150.88371,11.3826725 L155.39425,5.26922319 L155.39425,4.32226667 L149.230589,4.32226667 L149.230589,5.42417971 L153.741129,5.42417971 L149.230589,11.5031942 L149.230589,12.4673681 L155.463103,12.4673681 Z M156.933252,12.4673681 L158.448029,12.4673681 L158.448029,3.6680058 L156.933252,3.6680058 L156.933252,12.4673681 Z M156.933252,2.03171594 L158.448029,2.03171594 L158.448029,0.361628986 L156.933252,0.361628986 L156.933252,2.03171594 Z M167.318013,12.4673681 L167.318013,7.33594783 C167.318013,6.95716522 167.291875,6.59241159 167.240234,6.24232464 C167.188594,5.89223768 167.0477,5.55044058 166.818826,5.21757101 C166.634579,4.96504928 166.428019,4.76417971 166.198507,4.61496232 C165.968995,4.46574493 165.745222,4.35415072 165.527186,4.27890435 C165.30915,4.20429565 165.108327,4.15583188 164.924718,4.13287536 C164.741108,4.10991884 164.603402,4.09844058 164.511597,4.09844058 C164.16733,4.09844058 163.854301,4.14435362 163.57315,4.23617971 C163.291998,4.3280058 163.048461,4.44597681 162.8419,4.58881739 C162.634702,4.73293333 162.456831,4.89044058 162.307648,5.06261449 C162.158466,5.23478841 162.04371,5.39548406 161.963381,5.54470145 L161.946168,4.35670145 L160.586312,4.35670145 L160.586312,12.4673681 L161.946168,12.4673681 L161.946168,7.66307826 C161.946168,7.30725217 162.004183,6.98586087 162.119576,6.69826667 C162.234332,6.41194783 162.393078,6.17345507 162.594538,5.98406377 C162.796635,5.79467246 163.026785,5.6480058 163.28626,5.54470145 C163.545736,5.4413971 163.819237,5.38974493 164.107402,5.38974493 C164.349664,5.38974493 164.58045,5.42162899 164.799124,5.48475942 C165.017797,5.54788986 165.214157,5.6511942 165.386929,5.79467246 C165.5597,5.93815072 165.698044,6.1218029 165.801962,6.34562899 C165.90588,6.56945507 165.95752,6.83664348 165.95752,7.14655652 L165.95752,12.4673681 L167.318013,12.4673681 Z M175.007926,10.0218609 C174.835792,10.5039478 174.566116,10.8859188 174.198898,11.1671362 C173.831679,11.4489913 173.378394,11.5892812 172.839042,11.5892812 C172.425921,11.5892812 172.026826,11.4802377 171.642394,11.2621507 C171.257962,11.0440638 170.973623,10.7398899 170.790013,10.3489913 C170.629355,10.0511942 170.531813,9.75275942 170.497386,9.45368696 C170.462959,9.15525217 170.445746,8.84533913 170.445746,8.52394783 L176.316779,8.52394783 C176.328255,7.96151304 176.270877,7.41884638 176.144646,6.89658551 C176.017777,6.37432464 175.811216,5.91264348 175.524965,5.51026667 C175.237438,5.10852754 174.867669,4.78713623 174.414384,4.54609275 C173.960461,4.30504928 173.418558,4.18452754 172.787402,4.18452754 C172.178558,4.18452754 171.644944,4.30249855 171.185921,4.53716522 C170.726898,4.77310725 170.336728,5.08557101 170.015412,5.47583188 C169.694096,5.86609275 169.453108,6.31693333 169.29245,6.82771594 C169.131792,7.33849855 169.051463,7.86968696 169.051463,8.42064348 C169.051463,8.99455652 169.128605,9.53403478 169.283525,10.0390783 C169.439083,10.5447594 169.671144,10.9924116 169.980985,11.3826725 C170.290826,11.7729333 170.678445,12.079658 171.143206,12.3034841 C171.607967,12.5279478 172.144132,12.639542 172.752975,12.639542 C173.143144,12.639542 173.519288,12.5847014 173.880769,12.475658 C174.24225,12.3672522 174.571854,12.2091072 174.870219,12.0024986 C175.168584,11.7958899 175.432522,11.5459188 175.662671,11.2532232 C175.892183,10.9605275 176.064317,10.6308464 176.179072,10.2629043 L175.007926,10.0218609 Z M170.514599,7.61142609 C170.526075,7.29003478 170.586641,6.98012174 170.695659,6.68104928 C170.804677,6.38325217 170.959597,6.11925217 171.16042,5.88904928 C171.361242,5.65948406 171.596492,5.47583188 171.866168,5.33809275 C172.135844,5.20035362 172.443134,5.13148406 172.787402,5.13148406 C173.143144,5.13148406 173.458723,5.1978029 173.734137,5.3298029 C174.009551,5.4618029 174.235875,5.63971594 174.414384,5.86354203 C174.592255,6.08736812 174.726774,6.35136812 174.818579,6.65554203 C174.910384,6.95971594 174.956286,7.27855652 174.956286,7.61142609 L170.514599,7.61142609 Z" id="Fill-10" fill="#1D1C1B"></path>
                <path d="M56.6388648,63.0307652 L56.6388648,79.4925043 C56.6388648,80.6288522 56.8199239,81.6905913 57.1826797,82.6789971 C57.5454355,83.6674029 58.100726,84.5365623 58.8491887,85.2864754 C59.5976514,86.0357507 60.5271733,86.6268812 61.6383918,87.0585913 C62.7489728,87.4896638 64.0533635,87.7058377 65.5496514,87.7058377 C67.1364689,87.7058377 68.5135383,87.4673449 69.6814972,86.9903594 C70.849456,86.5133739 71.8185049,85.871229 72.5899188,85.0645623 C73.3606951,84.2585333 73.9268237,83.3434609 74.290217,82.321258 C74.6529728,81.2984174 74.8340319,80.2424174 74.8340319,79.1513449 L74.8340319,63.0307652 L71.631708,63.0307652 L71.631708,78.5040986 C71.631708,79.3675188 71.5290653,80.1856638 71.3244175,80.9578957 C71.1204072,81.7307652 70.7850653,82.4181855 70.3196668,83.0195188 C69.8536308,83.6221275 69.2345871,84.099113 68.4625357,84.451113 C67.6898468,84.8037507 66.7360987,84.9797507 65.6000165,84.9797507 C64.5321501,84.9797507 63.6351424,84.8209681 62.9083558,84.5021275 C62.1809316,84.1845623 61.5905769,83.747113 61.136654,83.1904174 C60.6820936,82.6337217 60.353127,81.9922145 60.1484792,81.2646203 C59.9438314,80.5376638 59.8418262,79.7647942 59.8418262,78.947287 L59.8418262,63.0307652 L56.6388648,63.0307652 Z M79.70669,71.0400406 L79.70669,87.0923884 L82.1599136,87.0923884 L82.1599136,79.0148812 C82.1599136,78.379113 82.2109162,77.7943594 82.3129213,77.2599826 C82.415564,76.7262435 82.6367877,76.1638087 82.9778674,75.5726783 C83.4317902,74.755171 83.9940936,74.1245043 84.6641398,73.6813159 C85.3341861,73.2381275 86.1464021,73.0168522 87.1007877,73.0168522 L87.6114509,73.0168522 L87.6114509,70.6650841 L86.691492,70.5968522 C86.0322838,70.5968522 85.4534046,70.7109971 84.954217,70.9380116 C84.4537542,71.1650261 84.0170447,71.4774899 83.6421758,71.8747652 C83.2673069,72.2726783 82.9434406,72.7216058 82.6712144,73.2215478 C82.3983506,73.7214899 82.1707517,74.2437507 81.9896925,74.7889681 L81.9214766,74.7889681 L81.9214766,71.0400406 L79.70669,71.0400406 Z M89.0969008,83.4461275 C89.2556463,83.9460696 89.4998211,84.4402725 89.8294252,84.9280986 C90.1583918,85.4172 90.579163,85.8603884 91.0898262,86.2576638 C91.601127,86.6555768 92.2259085,86.9788812 92.9641707,87.2288522 C93.7017954,87.4788232 94.5828648,87.6038087 95.6048288,87.6038087 C96.5133121,87.6038087 97.3822684,87.5068812 98.2116977,87.3143014 C99.0404895,87.1210841 99.7672761,86.8143594 100.392058,86.3941275 C101.016839,85.9738957 101.510926,85.4344174 101.87432,84.7750551 C102.237713,84.1163304 102.41941,83.321142 102.41941,82.3894899 C102.41941,81.7078087 102.283615,81.1109391 102.010752,80.6001565 C101.738525,80.0887362 101.363657,79.6455478 100.886145,79.2705913 C100.409271,78.8956348 99.8412298,78.5665913 99.1826591,78.2821855 C98.5234509,77.9984174 97.8081398,77.7541855 97.0360884,77.5494899 L94.9915229,77.0042725 C94.4005306,76.8454899 93.9236566,76.6803304 93.5602632,76.5100696 C93.1968699,76.3398087 92.9182684,76.1523304 92.7257337,75.9476348 C92.5325614,75.7435768 92.4018674,75.5337797 92.3336514,75.3176058 C92.2654355,75.1014319 92.2316463,74.8801565 92.2316463,74.6525043 C92.2316463,74.4261275 92.2769111,74.1927362 92.3680781,73.9542435 C92.4586077,73.7157507 92.6345666,73.4938377 92.8959548,73.289142 C93.1567054,73.0850841 93.5207362,72.9148232 93.9861347,72.7783594 C94.4515332,72.6418957 95.0597388,72.5736638 95.8094766,72.5736638 C96.6950087,72.5736638 97.4957491,72.7840986 98.2116977,73.2043304 C98.9270087,73.6252 99.4096206,74.2322725 99.6595332,75.0274609 L101.87432,73.6640986 C101.465662,72.7783594 100.733137,72.011229 99.6767465,71.3639826 C98.6203558,70.7160986 97.3535794,70.3921565 95.8776925,70.3921565 C94.0148237,70.3921565 92.5096103,70.767113 91.36269,71.5170261 C90.2151321,72.2669391 89.6419907,73.403287 89.6419907,74.9254319 C89.6419907,76.0840986 90.0621244,76.999171 90.9030293,77.6687362 C91.7426591,78.3395768 92.8449522,78.8675768 94.2079959,79.2540116 L96.3207774,79.8330261 C97.524438,80.1518667 98.3933943,80.5376638 98.9270087,80.9916928 C99.4606231,81.4469971 99.7277491,82.0030551 99.7277491,82.6617797 C99.7277491,83.1846783 99.6136308,83.6221275 99.3873069,83.9741275 C99.159708,84.3267652 98.8587928,84.6105333 98.4839239,84.8260696 C98.109055,85.0422435 97.6889213,85.1959246 97.2235229,85.2864754 C96.7574869,85.3770261 96.2863506,85.4223014 95.8094766,85.4223014 C95.1050036,85.4223014 94.5025357,85.3374899 94.0033481,85.167229 C93.5035229,84.9963304 93.0884895,84.7635768 92.7595229,84.4683304 C92.4299188,84.1730841 92.1685306,83.8325623 91.9759959,83.4461275 C91.7828237,83.0596928 91.6291784,82.6617797 91.5163352,82.2530261 L89.0969008,83.4461275 Z" id="Fill-12" fill="#1D1C1B"></path>
                <g id="Group-16" transform="translate(116.668380, 60.923420)">
                    <mask id="mask-4" fill="white">
                        <use xlink:href="#path-3"></use>
                    </mask>
                    <g id="Clip-15"></g>
                    <path d="M0.115775835,25.102829 L2.84186324,25.102829 L2.84186324,13.2081623 L13.8137913,13.2081623 L13.8137913,10.6861333 L2.84186324,10.6861333 L2.84186324,3.42677101 L16.130583,3.42677101 L16.130583,0.972973913 L0.115775835,0.972973913 L0.115775835,25.102829 Z M18.7336267,25.102829 L21.9365882,25.102829 L21.9365882,1.0412058 L18.7336267,1.0412058 L18.7336267,25.102829 Z M38.1789943,24.8981333 C39.303601,24.4893797 40.2120843,23.9556406 40.9050817,23.2962783 C41.5980792,22.6375536 42.0979044,21.8876406 42.4045573,21.0471768 C42.7112103,20.206713 42.864218,19.354771 42.864218,18.490713 C42.864218,17.3779594 42.6602077,16.4463072 42.2509121,15.6963942 C41.842254,14.9464812 41.3080021,14.310713 40.6494314,13.7878145 C39.9902231,13.2649159 39.2353851,12.8332058 38.3836422,12.4926841 C37.5318992,12.1515246 36.6572051,11.8569159 35.7601974,11.6063072 C34.8625522,11.3563362 33.9878581,11.1121043 33.1361152,10.8736116 C32.2843722,10.6351188 31.5288967,10.3685681 30.870326,10.0726841 C30.2111177,9.77743768 29.6775033,9.40822029 29.2688452,8.96503188 C28.8601871,8.52184348 28.6555393,7.97152464 28.6555393,7.31216232 C28.6555393,6.15349565 29.1266756,5.23332174 30.0695856,4.55164058 C31.0118581,3.86995942 32.2104185,3.5288 33.6646293,3.5288 C35.0047219,3.5288 36.2542848,3.75645217 37.4126807,4.21048116 C38.5710766,4.66514783 39.6274674,5.40358261 40.5812154,6.42578551 L42.2853388,4.17668406 C41.3309532,3.10856812 40.1496062,2.28468406 38.7412977,1.70566957 C37.3329892,1.12601739 35.7085573,0.836510145 33.8686396,0.836510145 C32.7102437,0.836510145 31.6372771,1.00166957 30.6491023,1.33071304 C29.6609275,1.6603942 28.7970715,2.11442319 28.0594468,2.69407536 C27.320547,3.27308986 26.7474057,3.97198841 26.3387476,4.79013333 C25.9294519,5.60827826 25.7254416,6.50613333 25.7254416,7.48242319 C25.7254416,8.89169855 26.0709841,10.0044522 26.764619,10.8225971 C27.4569789,11.640742 28.331673,12.2937275 29.3880638,12.7821913 C30.4444545,13.2712928 31.5798992,13.662829 32.795673,13.9580754 C34.0101717,14.2533217 35.1468915,14.5830029 36.2026447,14.9464812 C37.2590355,15.3099594 38.1337296,15.7761043 38.826727,16.3436406 C39.5190869,16.9118145 39.8659044,17.7070029 39.8659044,18.7292058 C39.8659044,19.206829 39.7689995,19.6895536 39.5764648,20.1780174 C39.382655,20.6671188 39.0594262,21.1039304 38.6048658,21.4903652 C38.1503054,21.8768 37.5599506,22.1943652 36.833164,22.4443362 C36.1057398,22.6949449 35.2202077,22.8192928 34.1752925,22.8192928 C32.4718067,22.8192928 30.9838067,22.4845101 29.7119301,21.8136696 C28.4394159,21.1441043 27.4289275,20.3431768 26.6791897,19.410887 L24.839272,21.728858 C25.861236,22.8875246 27.1394879,23.8076986 28.6727527,24.4893797 C30.2060175,25.1710609 32.0057707,25.5115826 34.0732874,25.5115826 C35.6862437,25.5115826 37.0550252,25.3075246 38.1789943,24.8981333 L38.1789943,24.8981333 Z M63.3219866,2.96636522 C61.6867167,1.36451014 59.3469738,0.563582609 56.3027578,0.563582609 C52.8275702,0.563582609 50.0900072,1.79111884 48.091344,4.24491594 C46.2514262,6.47169855 45.3314674,9.3572058 45.3314674,12.9014377 C45.3314674,17.5144232 46.535128,20.9221913 48.9430869,23.1260174 C50.8735342,24.7846261 53.190326,25.6142493 55.8940997,25.6142493 C59.1193748,25.6142493 61.6637656,24.5914087 63.5266344,22.5470029 C65.0713748,20.8424812 65.9913337,18.7521623 66.2865111,16.2754087 L63.1517656,16.2754087 C62.833637,17.8211478 62.3682386,19.058887 61.7549326,19.9905391 C60.4824185,21.8538435 58.6539763,22.7854957 56.2689686,22.7854957 C53.7016267,22.7854957 51.7820175,21.9105971 50.5101409,20.1608 C49.2382643,18.4116406 48.6020072,16.1510609 48.6020072,13.3784232 C48.6020072,10.0165681 49.3058427,7.51111884 50.7147887,5.86335072 C52.1230972,4.21622029 53.9974416,3.39233623 56.3371846,3.39233623 C58.2453183,3.39233623 59.7275805,3.84764058 60.7839712,4.75569855 C61.8397244,5.66503188 62.5607733,6.86897391 62.9471177,8.3688 L66.048074,8.3688 C65.8657398,6.36966957 64.9578941,4.56822029 63.3219866,2.96636522 L63.3219866,2.96636522 Z M89.2351177,25.102829 L89.2351177,1.0412058 L86.0327938,1.0412058 L86.0327938,11.2657855 L72.9818735,11.2657855 L72.9818735,1.0412058 L69.7789121,1.0412058 L69.7789121,25.102829 L72.9818735,25.102829 L72.9818735,14.0945391 L86.0327938,14.0945391 L86.0327938,25.102829 L89.2351177,25.102829 Z M109.822305,22.5125681 L97.2495342,22.5125681 L97.2495342,13.6851478 L106.925997,13.6851478 L106.925997,11.2657855 L97.2495342,11.2657855 L97.2495342,3.59703188 L109.447437,3.59703188 L109.447437,1.00677101 L94.2167938,1.00677101 L94.2167938,25.102829 L109.822305,25.102829 L109.822305,22.5125681 Z M115.420475,3.42677101 L123.870963,3.42677101 C125.14284,3.42677101 126.136753,3.7794087 126.852701,4.4834087 C127.568012,5.18804638 127.925668,6.08526377 127.925668,7.17569855 C127.925668,8.26613333 127.601802,9.15824928 126.954706,9.8514087 C126.306974,10.5445681 125.347488,10.890829 124.075611,10.890829 L115.420475,10.890829 L115.420475,3.42677101 Z M127.550799,25.102829 L130.617329,25.102829 L125.608876,13.2425971 C127.244146,12.9243942 128.505185,12.2318725 129.390717,11.1631188 C130.276886,10.0956406 130.719971,8.76671304 130.719971,7.17569855 C130.719971,5.26711884 130.117503,3.75645217 128.913843,2.64306087 C127.709544,1.52966957 125.949318,0.972973913 123.632526,0.972973913 L112.695025,0.972973913 L112.695025,25.102829 L115.420475,25.102829 L115.420475,13.3784232 L122.848999,13.3784232 L127.550799,25.102829 Z" id="Fill-14" fill="#1D1C1B" mask="url(#mask-4)"></path>
                </g>
            </g>
        </g>
    </g>
</svg>